<?xml version="1.0" standalone="no"?>
<!DOCTYPE svg PUBLIC "-//W3C//DTD SVG 1.1//EN" "http://www.w3.org/Graphics/SVG/1.1/DTD/svg11.dtd" >
<!--
2013-9-30: Created.
-->
<svg>
<metadata>
Created by iconfont
</metadata>
<defs>

<font id="fdesfont" horiz-adv-x="1024" >
  <font-face
    font-family="fdesfont"
    font-weight="500"
    font-stretch="normal"
    units-per-em="1024"
    ascent="896"
    descent="-128"
  />
    <missing-glyph />
    
    <glyph glyph-name="zhuanhuanzhe" unicode="&#58960;" d="M470.791621 679.797133 470.791621 746.972437c-172.171996 0-316.683572-120.238148-353.375965-281.120176L19.192944 465.85226l128.141125-163.140022 128.705623 163.140022L186.284454 465.85226C221.84785 589.477398 335.876516 679.797133 470.791621 679.797133zM1027.951488 302.712238l-128.705623 163.140022-128.141125-163.140022 87.497244 0c-35.563396-123.625138-149.592062-214.509372-285.071665-214.509372L573.53032 21.027563c172.171996 0 316.683572 120.238148 353.940463 281.684675L1027.951488 302.712238zM477.001103 267.713341 204.9129 267.713341c-8.467475 0-15.241455-6.77398-15.241455-15.241455l0-272.088203c0-8.467475 6.77398-15.241455 15.241455-15.241455l272.088203 0c8.467475 0 15.241455 6.77398 15.241455 15.241455L492.242558 252.471885C492.242558 260.939361 485.468578 267.713341 477.001103 267.713341zM429.583241 36.269019c0-5.080485-3.951488-9.031974-9.031974-9.031974L260.798236 27.237045c-5.080485 0-9.031974 3.951488-9.031974 9.031974L251.766262 196.022051c0 5.080485 3.951488 9.031974 9.031974 9.031974l159.753032 0c5.080485 0 9.031974-3.951488 9.031974-9.031974L429.583241 36.269019 429.583241 36.269019zM845.054024 805.680265l-272.088203 0c-8.467475 0-15.241455-6.77398-15.241455-15.241455L557.724366 517.786108c0-8.467475 6.77398-15.241455 15.241455-15.241455l272.088203 0c8.467475 0 15.241455 6.77398 15.241455 15.241455L860.29548 789.874311C860.29548 798.341786 853.521499 805.680265 845.054024 805.680265zM797.636163 574.235943c0-5.080485-3.951488-9.031974-9.031974-9.031974l-159.753032 0c-5.080485 0-9.031974 3.951488-9.031974 9.031974L619.819184 733.988975c0 5.080485 3.951488 9.031974 9.031974 9.031974l159.753032 0c5.080485 0 9.031974-3.951488 9.031974-9.031974L797.636163 574.235943z"  horiz-adv-x="1028" />

    
    <glyph glyph-name="convert" unicode="&#58910;" d="M732.68 723.72l-178.39 103c-26 15-58.48-3.75-58.48-33.76v-2.59a23.93 23.93 0 0 0-21.64-23.8C279.85 747.56 128 583.74 128 384.43a384.68 384.68 0 0 1 2-38.93 52.33 52.33 0 0 1 52.12-46.93h49.08c31.51 0 55.62 27.58 52 58.87a232.44 232.44 0 0 0-1.57 27c0 111.94 79.83 205.22 185.66 226A24 24 0 0 0 495.81 587c0-30 32.49-48.77 58.48-33.76l178.39 103c25.99 14.96 25.99 52.48 0 67.48zM291.32 44.27999999999997l178.39-103c26-15 58.48 3.75 58.48 33.76v2.59a23.93 23.93 0 0 0 21.64 23.8C744.15 20.440000000000055 896 184.26 896 383.57000000000005a384.68 384.68 0 0 1-2 38.93 52.33 52.33 0 0 1-52.12 46.93H792.8c-31.51 0-55.62-27.58-52-58.87a232.44 232.44 0 0 0 1.57-27c0-111.94-79.83-205.22-185.66-226A24 24 0 0 0 528.19 181c0 30-32.49 48.77-58.48 33.76l-178.39-103c-25.99-14.96-25.99-52.48 0-67.48z"  horiz-adv-x="1024" />

    
    <glyph glyph-name="convert1" unicode="&#59029;" d="M292.571429 603.428571V896L0 603.428571v-146.285714h1024V603.428571H292.571429z m-292.571429-438.857142h731.428571v-292.571429l292.571429 292.571429V310.784H0V164.571429z"  horiz-adv-x="1024" />

    
    <glyph glyph-name="convert-ip-ash--hover" unicode="&#58939;" d="M341.333333 611.555556h227.555556V725.333333H227.555556v-455.111111H113.777778l170.666666-170.666666 170.666667 170.666666H341.333333z m398.222223 56.888888L568.888889 497.777778h113.777778v-341.333334H455.111111v-113.777777h341.333333V497.777778h113.777778z"  horiz-adv-x="1024" />

    
    <glyph glyph-name="CurrencyConverter" unicode="&#59076;" d="M512 896a512 512 0 1 0 0-1024A512 512 0 0 0 512 896z m0-90.331429a421.668571 421.668571 0 1 1 0-843.337142 421.668571 421.668571 0 0 1 0 843.337142z m122.88-194.048l163.84-163.986285-63.853714-63.926857-87.332572 87.405714v-342.674286H557.202286V579.437714l1.097143 8.192c1.609143 10.166857 3.291429 12.288 12.214857 23.990857l10.093714 5.558858c22.528 11.922286 25.819429 10.093714 54.198857-5.558858z m-167.497143 13.312v-450.998857l-1.097143-8.192c-1.609143-10.166857-3.218286-12.288-12.141714-23.990857l-10.166857-5.558857c-22.454857-11.995429-25.819429-10.093714-54.125714 5.558857L225.792 305.737143l63.926857 63.926857 87.332572-87.405714V624.932571H467.382857z"  horiz-adv-x="1024" />

    
    <glyph glyph-name="PlateConvert" unicode="&#58892;" d="M163.84 588.8c10.24 0 35.84 0 46.08-10.24 35.84-25.6 35.84-71.68 10.24-107.52-5.12-25.6-20.48-56.32-20.48-81.92 0-66.56 51.2-122.88 117.76-128H460.8v25.6c0 30.72 20.48 51.2 51.2 51.2 10.24 0 20.48-5.12 30.72-10.24l163.84-107.52c25.6-15.36 30.72-46.08 15.36-71.68l-15.36-15.36-163.84-107.52c-25.6-15.36-56.32-10.24-71.68 15.36-5.12 10.24-10.24 20.48-10.24 30.72v25.6H327.68c-66.56 0-128 20.48-184.32 71.68l-10.24 10.24C71.68 235.52 51.2 307.2 51.2 378.88s20.48 128 56.32 174.08c15.36 25.6 35.84 35.84 56.32 35.84z m389.12 138.24c5.12-10.24 10.24-20.48 10.24-30.72v-25.6h133.12c66.56 0 128-20.48 184.32-71.68l10.24-10.24C947.2 532.48 972.8 460.8 972.8 389.12s-25.6-128-56.32-174.08c-10.24-25.6-35.84-35.84-56.32-35.84-10.24 0-35.84 0-46.08 10.24-35.84 25.6-35.84 71.68-10.24 107.52 10.24 25.6 20.48 56.32 20.48 81.92 0 66.56-51.2 122.88-117.76 128H563.2v-25.6c0-30.72-20.48-51.2-51.2-51.2-10.24 0-20.48 0-30.72 5.12L317.44 547.84c-20.48 15.36-25.6 46.08-10.24 71.68 0 5.12 5.12 10.24 10.24 10.24L481.28 742.4c25.6 15.36 56.32 5.12 71.68-15.36z"  horiz-adv-x="1024" />

    
    <glyph glyph-name="weibiao45127" unicode="&#58932;" d="M303.999988 436.571439l409.142848 0c13.714285 0 25.142857 11.428571 25.142857 25.142857 0 13.714285-11.428571 25.142857-25.142857 25.142857L303.999988 486.857152c-13.714285 0-25.142857-11.428571-25.142857-25.142857C278.857132 448.00001 290.285703 436.571439 303.999988 436.571439zM303.999988 274.285728l409.142848 0c13.714285 0 25.142857 11.428571 25.142857 25.142857 0 13.714285-11.428571 25.142857-25.142857 25.142857L303.999988 324.571441c-13.714285 0-25.142857-11.428571-25.142857-25.142857C278.857132 285.714299 290.285703 274.285728 303.999988 274.285728zM303.999988 112.000017l409.142848 0c13.714285 0 25.142857 11.428571 25.142857 25.142857 0 13.714285-11.428571 25.142857-25.142857 25.142857L303.999988 162.285731c-13.714285 0-25.142857-11.428571-25.142857-25.142857C278.857132 123.428589 290.285703 112.000017 303.999988 112.000017zM322.285702 635.428577l381.714277 0c18.285714 0 31.999999 13.714285 31.999999 31.999999L735.999978 816.000002c0 4.571428-4.571428 9.142857-9.142857 9.142857l-89.142855 0C612.57141 868.571429 564.571411 896 511.999983 896c-52.571427 0-98.285712-27.428571-123.428569-70.857141L299.42856 825.142859C292.571417 825.142859 290.285703 820.57143 290.285703 816.000002L290.285703 667.428577C290.285703 649.142863 303.999988 635.428577 322.285702 635.428577zM340.571416 774.857146l29.714285 0 36.571428 0 13.714285 0c4.571428 20.571428 16 38.857142 31.999999 50.285713l0 0c16 13.714285 36.571428 20.571428 59.42857 20.571428 22.857142 0 43.42857-6.857143 59.42857-20.571428l0 0c16-13.714285 27.428571-29.714285 31.999999-50.285713l11.428571 0L655.99998 774.857146l31.999999 0 0-79.999998c0-4.571428-4.571428-9.142857-9.142857-9.142857L349.714273 685.71429c-4.571428 0-9.142857 4.571428-9.142857 9.142857L340.571416 774.857146zM939.428545 688.000005c0 59.42857-47.999999 109.714283-109.714283 109.714283l-52.571427 0 0-50.285713 52.571427 0c31.999999 0 59.42857-27.428571 59.42857-59.42857l0-692.571413 0 0 0-9.142857c0-31.999999-27.428571-59.42857-59.42857-59.42857l-635.428557 0c-31.999999 0-59.42857 27.428571-59.42857 59.42857L134.857135 685.71429c0 31.999999 27.428571 59.42857 59.42857 59.42857l52.571427 0L246.857132 795.428574 194.285705 795.428574C134.857135 795.428574 84.571422 747.428575 84.571422 688.000005l0-109.714283c0 0 0 0 0-2.285714s0 0 0-2.285714l0-591.999987c0-61.714284 50.285713-109.714283 109.714283-109.714283l635.428557 0c61.714284 0 109.714283 50.285713 109.714283 109.714283L939.428545 688.000005 939.428545 688.000005z"  horiz-adv-x="1024" />

    
    <glyph glyph-name="chart" unicode="&#58973;" d="M597.333333 810.666667C550.205056 810.666667 512 772.461632 512 725.333333 512 717.52771 512.703659 709.849694 514.666667 702.666667L424 629.333333C412.02967 635.731029 398.521212 640 384 640 355.926161 640 331.551539 626.257626 316 605.333333L253.333333 618.666667C243.862925 655.47517 210.431168 682.666667 170.666667 682.666667 123.538368 682.666667 85.333333 644.461632 85.333333 597.333333 85.333333 550.205035 123.538368 512 170.666667 512 200.759735 512 227.473557 527.135667 242.666667 550.666667L300 538.666667C307.457395 499.146483 342.312247 469.333333 384 469.333333 431.128277 469.333333 469.333333 507.538368 469.333333 554.666667 469.333333 562.47229 468.629675 570.150306 466.666667 577.333333L557.333333 649.333333C569.169877 643.119607 583.037269 640 597.333333 640 611.216683 640 624.413995 643.45097 636 649.333333L772 536C769.741099 528.337007 768 520.394726 768 512 768 464.871723 806.205056 426.666667 853.333333 426.666667 900.461611 426.666667 938.666667 464.871723 938.666667 512 938.666667 559.128299 900.461611 597.333333 853.333333 597.333333 839.449984 597.333333 826.252672 593.882364 814.666667 588L678.666667 701.333333C680.925568 708.996326 682.666667 716.938607 682.666667 725.333333 682.666667 772.461632 644.461611 810.666667 597.333333 810.666667zM512 384 512-42.666667 682.666667-42.666667 682.666667 384 512 384zM725.333333 256 725.333333-42.666667 896-42.666667 896 256 725.333333 256zM85.333333 213.333333 85.333333-42.666667 256-42.666667 256 213.333333 85.333333 213.333333zM298.666667 170.666667 298.666667-42.666667 469.333333-42.666667 469.333333 170.666667 298.666667 170.666667z"  horiz-adv-x="1024" />

    
    <glyph glyph-name="list" unicode="&#58884;" d="M300.697 198.101c-12.587 0-22.77-10.186-22.77-22.773s10.184-22.772 22.77-22.772h339.717c12.588 0 22.77 10.186 22.77 22.772s-10.182 22.773-22.77 22.773H300.697zM897.758 300.8c11.919 0 21.572 9.652 21.572 21.571v393.4c0 45.28-36.694 81.97-81.95 81.97H181.544c-45.278 0-81.972-36.69-81.972-81.97v-655.837c0-45.277 36.694-81.95 81.972-81.95H837.38c45.256 0 81.95 36.673 81.95 81.95v68.271c-0.067 11.855-9.675 21.464-21.572 21.464-11.853 0-21.505-9.609-21.571-21.464v-63.956c0-23.84-19.325-43.165-43.142-43.165H185.836c-23.794 0-43.121 19.325-43.121 43.165V711.454c0 23.84 19.327 43.142 43.121 43.142h647.21c23.816 0 43.141-19.301 43.141-43.142V322.37c-0.001-11.92 9.652-21.57 21.571-21.57z m-170.08 307.202h-426.98c-12.587 0-22.77-10.184-22.77-22.77 0-12.59 10.184-22.774 22.77-22.774H727.68c12.585 0 22.79 10.184 22.79 22.773 0.002 12.587-10.205 22.77-22.79 22.77z m22.793-227.722c0 12.587-10.207 22.77-22.791 22.77H300.698c-12.587 0-22.77-10.183-22.77-22.77 0-12.586 10.184-22.771 22.77-22.771H727.68c12.584-0.001 22.79 10.185 22.79 22.771z"  horiz-adv-x="1024" />

    
    <glyph glyph-name="Radar" unicode="&#58891;" d="M1045.648639 539.368253L570.661076 884.463311a60.113693 60.113693 0 0 1-70.812366 0L24.861146 539.368253a60.085759 60.085759 0 0 1-21.872222-67.348566L184.363557-86.378419a60.085759 60.085759 0 0 1 57.292372-41.621469H828.797989a60.085759 60.085759 0 0 1 57.292372 41.621469l181.4305 558.370172a60.085759 60.085759 0 0 1-21.872222 67.3765z m-55.057662-22.15156l-144.753326-32.45916a87.852028 87.852028 0 0 1-132.937298 24.106932l-93.103596 63.940633a87.907896 87.907896 0 0 1-58.661132 111.288547V829.182178z m-513.731844 17.514537a87.991698 87.991698 0 0 1 34.05139-19.246438v-94.500289l-152.882083 34.274861c-0.391074 2.458181-0.893884 4.888428-1.480495 7.290741z m59.191875 102.768716A37.710728 37.710728 0 1 0 498.340281 599.900954a37.738661 37.738661 0 0 0 37.710727 37.598992zM681.586482 447.940689l-120.394989-26.98412v94.528223a87.824094 87.824094 0 0 1 30.140648 15.86644l93.774009-64.387576a87.349218 87.349218 0 0 1-3.519668-19.022967z m-38.353206-312.663831l-181.57017 23.240981a87.628557 87.628557 0 0 1-18.715694 41.900809l93.103596 143.049359 121.316807-186.458597a88.243102 88.243102 0 0 1-14.134539-21.732552z m-306.15524 9.52545a37.710728 37.710728 0 1 0 37.710728-37.710728 37.738661 37.738661 0 0 0-37.710728 37.710728z m-65.951872 258.891128a37.710728 37.710728 0 1 0 37.710727 37.710727 37.738661 37.738661 0 0 0-37.710727-37.710727z m80.170213 1.508429l143.971178-32.263623-93.829877-144.27845a87.656491 87.656491 0 0 1-26.62098 4.134213h-4.748759l-47.878657 137.155313a88.522441 88.522441 0 0 1 29.107095 35.252547z m0.363141-345.290595a87.879962 87.879962 0 0 1 103.355327 48.772541l181.234963-23.185114a87.991698 87.991698 0 0 1 113.607058-70.616829L810.082295-77.718918H262.159391z m371.5205 1.089421a37.710728 37.710728 0 1 0 37.710728 37.710728 37.738661 37.738661 0 0 0-37.65486-37.710728z m-13.966936 124.58507a87.321285 87.321285 0 0 1-9.274045-2.011238l-123.188377 189.363719 115.590363 25.838832a89.025251 89.025251 0 0 1 40.085107-37.15205z m59.974024 218.079741a37.710728 37.710728 0 1 0 37.710727 37.710727 37.878331 37.878331 0 0 0-37.598992-37.682793zM510.910523 830.3554v-146.261755a88.019631 88.019631 0 0 1-60.057825-106.344251l-119.89218-71.929721A87.852028 87.852028 0 0 1 198.498096 490.958853l-118.216147 26.537178zM56.035348 471.405142l127.127052-28.49255v-1.480495a88.103433 88.103433 0 0 1 87.991698-87.991697h3.491734l48.102128-137.825726a87.824094 87.824094 0 0 1-13.743465-129.166225l-85.310046-131.065729z m791.338666-514.262588l-55.867744 86.008393a87.879962 87.879962 0 0 1-32.235689 135.842421L782.148422 354.362217a88.131367 88.131367 0 0 1 74.918646 81.399304l157.239767 35.252547z"  horiz-adv-x="1070" />

    
    <glyph glyph-name="chart1" unicode="&#58900;" d="M513.319675-127.968056c-135.904574 0.019965-263.69145 52.958702-359.818102 149.08136C57.354957 117.239956 4.41622 245.026832 4.432192 380.915434a33.860348 33.860348 0 1 0 67.716702 0c0-117.804462 45.879174-228.577311 129.224343-311.918487 83.329197-83.329197 194.118019-129.244308 311.938452-129.244308 25.163669 0 50.407197 2.132244 75.043794 6.316871 18.415557 3.190379 35.908739-9.275659 39.051203-27.707187a33.848369 33.848369 0 0 0-27.707188-39.051203 515.947046 515.947046 0 0 0-86.379823-7.279176zM716.046527-82.683834a33.83639 33.83639 0 0 0-30.634031 19.38984 33.872326 33.872326 0 0 0 16.151545 45.088567c153.64532 72.600099 252.914436 229.252122 252.914436 399.096903 0 117.836405-45.899139 228.625227-129.240315 311.954424-83.313226 83.329197-194.086075 129.208371-311.870571 129.208372h-0.067881c-155.709683 0-296.892958-79.623725-377.654678-212.984781a33.860348 33.860348 0 0 0-57.929944 35.082195C170.874966 797.952732 333.696121 889.77896 513.29971 889.77896h0.067881c135.888603 0 263.639541-52.926758 359.754214-149.033445C969.256443 644.602891 1022.199173 516.816016 1022.199173 380.895469c0-195.906867-114.494293-376.596543-291.702103-460.337015a33.832397 33.832397 0 0 0-14.450543-3.242288zM274.061181-63.274029a33.716601 33.716601 0 0 0-16.946145 4.567953 33.852362 33.852362 0 0 0-12.318299 46.274477l206.584057 356.432067-413.335819 3.050626c-18.699058 0.131768-33.744552 15.408854-33.612783 34.107911 0.131768 18.615205 15.277086 33.612784 33.860347 33.612784h0.247564l471.597179-3.489852a33.860348 33.860348 0 0 0 29.052817-50.838437L303.389513-46.395764a33.848369 33.848369 0 0 0-29.328332-16.878265zM593.981572-121.024289c-16.067693 0-30.32258 11.455818-33.281368 27.826976l-84.119805 464.589524a33.848369 33.848369 0 0 0 27.279941 39.350676c18.399585 3.406 36.012556-8.880355 39.346682-27.279941l84.123798-464.593517a33.844376 33.844376 0 0 0-33.349248-39.893718zM61.807113 463.134587c-14.119126-14.119126-37.066699-14.119126-51.201797 0-14.139091 14.135098-14.139091 37.102636 0 51.237734 14.135098 14.119126 37.082671 14.119126 51.201797 0 14.135098-14.135098 14.135098-37.102636 0-51.237734z"  horiz-adv-x="1024" />

    
    <glyph glyph-name="chart2" unicode="&#58982;" d="M256 179.2h537.6a25.6 25.6 0 1 0 0-51.2h-563.2a25.6 25.6 0 0 0-25.6 25.6V552.96a25.6 25.6 0 0 0 51.2 0V179.2z m149.1968 119.552a25.6 25.6 0 0 0-36.7104 35.7376L496.64 466.176a25.6 25.6 0 0 0 33.2288 2.9696l69.888-49.8176 126.1568 208.3328a25.6 25.6 0 0 0 43.6224 0.3072l81.7152-130.816a25.6 25.6 0 0 0-43.4176-27.136l-59.648 95.5392-118.8864-196.352a25.6 25.6 0 0 0-36.7616-7.5776L518.0416 414.72l-112.8448-115.968z"  horiz-adv-x="1024" />

    
    <glyph glyph-name="icon-test" unicode="&#58907;" d="M757.172382-128H370.35509a177.540728 177.540728 0 0 0-153.29175 88.498216L23.64914 295.49622999999997a177.451863 177.451863 0 0 0 0 176.996431L217.06334 807.490676A177.52962 177.52962 0 0 0 370.35509 896h386.817292a177.385215 177.385215 0 0 0 153.29175-88.509324l193.425308-334.998015a177.662917 177.662917 0 0 0 0-176.996431L910.441916-39.47956799999997a177.374106 177.374106 0 0 0-153.269534-88.520432zM370.35509 840.104052a121.489266 121.489266 0 0 1-104.893768-60.550242L72.047123 444.544687a121.444834 121.444834 0 0 1 0-121.078266l193.414199-335.020231a121.52259 121.52259 0 0 1 104.893768-60.56135h386.817292a121.444834 121.444834 0 0 1 104.871551 60.56135l193.425308 334.998015a121.600347 121.600347 0 0 1 0 121.078266L862.043933 779.564918a121.389293 121.389293 0 0 1-104.871551 60.539134zM360.468883 274.990682h-11.108098a9.097532 9.097532 0 0 1-9.130856-9.130857v-59.850431a9.086424 9.086424 0 0 1 9.130856-9.130856h11.108098a9.097532 9.097532 0 0 1 9.130857 9.130856v59.850431a9.097532 9.097532 0 0 1-9.130857 9.130857z m138.92898 97.351369h-11.108098a9.086424 9.086424 0 0 1-9.119748-9.130856v-157.201801a9.086424 9.086424 0 0 1 9.119748-9.130856h11.108098a9.086424 9.086424 0 0 1 9.130856 9.130856V363.211195a9.086424 9.086424 0 0 1-9.130856 9.130856z m139.962033-20.283386h-11.108098a9.097532 9.097532 0 0 1-9.130856-9.119749v-137.929251a9.097532 9.097532 0 0 1 9.130856-9.130856h11.108098a9.097532 9.097532 0 0 1 9.130856 9.130856V342.93891599999995c-1.021945 5.065293-5.131941 9.119748-9.141964 9.119749z m124.743939 144.00538h-11.174747a9.086424 9.086424 0 0 1-9.119748-9.130856v-281.923524a9.097532 9.097532 0 0 1 9.119748-9.130856h11.163639a9.097532 9.097532 0 0 1 9.119748 9.130856v281.923524a9.086424 9.086424 0 0 1-9.119748 9.130856z m-7.109183 167.332386l-110.536682-25.359787a9.57518 9.57518 0 0 1-5.065292-15.206986l28.392298-30.42508-101.416933-101.416934-47.65374 44.621229h-1.021945c-3.043619 4.065564-9.119748 4.065564-13.185312 0l-156.179856-147.037891c-4.054456-3.043619-4.054456-9.130856 0-13.185312l11.108098-11.108098c3.043619-4.065564 9.130856-4.065564 13.185312 0l139.995357 132.763986 48.675685-45.632066 1.010837-1.010837c3.043619-3.043619 9.130856-3.043619 13.185312 0l114.602245 117.634756 29.403135-32.457862c5.076401-5.065293 13.185312-3.032511 15.206986 3.043619l33.468699 108.515008a11.674611 11.674611 0 0 1-13.185312 16.262255z"  horiz-adv-x="1127" />

    
    <glyph glyph-name="Listofissues" unicode="&#58905;" d="M259.584 834.56c-15.36 13.824-35.84 20.992-57.344 20.48h-97.28C60.928 855.04 25.6 822.272 25.6 782.336v-84.48c0-39.936 35.328-72.704 79.36-72.704h99.328c44.032 0 79.36 32.768 79.36 72.704V782.336c0 19.456-8.704 38.4-24.064 52.224zM977.408 834.56c-15.36 13.824-35.84 20.992-57.344 20.48H420.352c-43.52 0-79.36-32.256-79.36-72.704v-84.48c0-19.456 8.192-37.888 23.04-51.2 14.848-13.824 34.816-20.992 55.808-20.992h499.712c21.504-0.512 41.984 7.168 57.344 20.48 15.36 13.824 24.064 32.256 24.064 51.712V782.336c0 19.968-8.704 38.4-23.552 52.224zM204.288 510.976H104.96C60.928 510.976 25.6 478.208 25.6 438.272v-84.48c0-19.456 8.192-37.376 23.04-51.2s35.328-20.992 56.32-20.992h97.28c21.504-0.512 41.984 7.168 57.344 20.48 15.36 13.824 24.064 32.256 24.064 51.712V438.272c0 39.936-35.328 72.704-79.36 72.704zM977.408 489.984c-15.36 13.824-35.84 20.992-57.344 20.48H420.352c-43.52 0-79.36-32.256-79.36-72.192v-84.48c0-18.944 8.192-37.376 23.04-51.2S398.848 281.6 419.84 281.6h499.712c21.504-0.512 41.984 7.168 57.344 20.48 15.36 13.824 24.064 32.256 24.064 51.712V438.272c0 19.456-8.704 38.4-23.552 51.712zM204.288 137.728H104.96c-44.032 0-79.36-32.256-79.36-72.192v-84.48c0-19.456 8.192-37.376 23.04-51.2s35.328-20.992 56.32-20.992h97.28c21.504-0.512 41.984 7.168 57.344 20.48s24.064 32.256 24.064 51.712v84.48c0 39.936-35.328 72.192-79.36 72.192zM977.408 117.248c-15.36 13.824-35.84 20.992-57.344 20.48H420.352c-43.52 0-79.36-32.256-79.36-72.192v-84.48c0-18.944 8.192-37.376 23.04-51.2s34.816-20.992 55.808-20.992h499.712c21.504-0.512 41.984 7.168 57.344 20.48 15.36 13.824 24.064 32.256 24.064 51.712v84.48c0 19.456-8.704 37.888-23.552 51.712z"  horiz-adv-x="1024" />

    
    <glyph glyph-name="error" unicode="&#58881;" d="M512 384m-400 0a400 400 0 1 1 800 0 400 400 0 1 1-800 0ZM512-72C260.56-72 56 132.56 56 384S260.56 840 512 840 968 635.44 968 384 763.44-72 512-72z m0 800c-189.68 0-344-154.32-344-344S322.32 40 512 40 856 194.32 856 384 701.68 728 512 728zM274.4 55.904l-90.512 90.496 565.68 565.664 90.496-90.496z"  horiz-adv-x="1024" />

    
    <glyph glyph-name="model" unicode="&#58908;" d="M121.6 416H345.6c70.4 0 121.6 57.6 121.6 128V768C467.2 838.4 409.6 896 345.6 896H121.6C57.6 896 0 838.4 0 768v-224c0-70.4 57.6-128 121.6-128zM44.8 768c0 44.8 38.4 76.8 76.8 76.8h230.4c44.8 0 76.8-32 76.8-76.8v-224c0-44.8-38.4-76.8-76.8-76.8H128c-44.8 0-76.8 38.4-76.8 76.8V768H44.8z m320-403.2H128a128.3584 128.3584 0 0 1-128-128V0C0-70.4 57.6-128 128-128h236.8c70.4 0 128 57.6 128 128V230.4c0 76.8-57.6 134.4-128 134.4zM448 0c0-44.8-38.4-83.2-83.2-83.2H128c-44.8 0-83.2 38.4-83.2 83.2V230.4c0 44.8 38.4 83.2 83.2 83.2h236.8c44.8 0 83.2-32 83.2-76.8V0z m448 364.8h-236.8a128.3584 128.3584 0 0 1-128-128V0c0-70.4 57.6-128 128-128H896c70.4 0 128 57.6 128 128V230.4c0 76.8-57.6 134.4-128 134.4z m83.2-364.8c0-44.8-38.4-83.2-83.2-83.2h-236.8c-44.8 0-83.2 38.4-83.2 83.2V230.4c0 44.8 38.4 83.2 83.2 83.2H896c44.8 0 83.2-38.4 83.2-83.2v-230.4zM601.6 550.4c12.8-19.2 19.2-44.8 6.4-70.4 0-6.4 0-6.4 6.4-12.8 25.6-19.2 51.2-38.4 76.8-44.8h6.4c6.4 0 6.4 0 6.4 6.4 19.2 19.2 38.4 32 64 32s44.8-12.8 64-32c6.4-6.4 6.4-6.4 12.8-6.4 25.6 12.8 51.2 25.6 76.8 44.8 6.4 0 6.4 6.4 6.4 12.8-6.4 25.6-6.4 51.2 6.4 70.4s32 38.4 57.6 44.8c6.4 0 6.4 6.4 6.4 12.8 6.4 19.2 6.4 32 6.4 44.8s0 32-6.4 44.8c0 6.4-6.4 6.4-6.4 12.8-25.6 6.4-44.8 19.2-57.6 44.8-12.8 19.2-19.2 44.8-6.4 70.4 0 6.4 0 6.4-6.4 12.8-25.6 19.2-51.2 38.4-76.8 44.8-6.4 0-6.4 0-12.8-6.4C812.8 857.6 793.6 844.8 768 844.8s-44.8 12.8-64 32C697.6 883.2 697.6 883.2 691.2 883.2c-25.6-19.2-51.2-32-76.8-51.2 0 0-6.4-6.4 0-12.8 6.4-25.6 0-51.2-12.8-70.4-6.4-25.6-32-38.4-57.6-44.8l-6.4-6.4c0-19.2-6.4-32-6.4-51.2s0-32 6.4-44.8c0-6.4 6.4-6.4 6.4-12.8 25.6 0 44.8-12.8 57.6-38.4z m25.6 96c0 76.8 64 140.8 140.8 140.8s140.8-64 140.8-140.8-64-140.8-140.8-140.8-140.8 64-140.8 140.8z"  horiz-adv-x="1024" />

    
    <glyph glyph-name="chart3" unicode="&#59147;" d="M129.378462 428.898462l200.152615 132.726153a56.201846 56.201846 0 0 0 52.775385 75.618462 56.201846 56.201846 0 0 0 56.044307-59.470769l165.100308-31.389539a56.162462 56.162462 0 0 0 90.387692 19.180308l172.977231 134.852923A56.201846 56.201846 0 0 0 918.882462 777.846154c30.995692 0 56.162462-25.206154 56.162461-56.280616a56.201846 56.201846 0 0 0-91.411692-43.795692L709.316923 539.963077a56.398769 56.398769 0 0 0-54.075077-71.561846 56.201846 56.201846 0 0 0-55.571692 48.206769l-171.047385 32.571077a56.083692 56.083692 0 0 0-81.447384-12.209231L146.865231 406.843077a56.201846 56.201846 0 0 0-51.318154-79.123692C64.512 327.719385 39.384615 352.925538 39.384615 384a56.201846 56.201846 0 0 0 89.993847 44.898462z m-70.774154-213.700924h96.059077V-9.846154h-96.098462v225.043692z m272.777846 196.923077h96.059077V-9.846154h-96.098462V412.120615z m545.555692 112.521847h96.098462V-9.846154h-96.098462V524.642462z m-272.777846-225.043693h96.059077V-9.846154H604.16v309.444923z"  horiz-adv-x="1024" />

    
    <glyph glyph-name="xiayibu--" unicode="&#58912;" d="M1023.914674 836.186318v-904.116657a59.728356 59.728356 0 0 0-59.557704-59.64303c-0.767936 0-1.450546-0.426631-2.133155-0.426631H61.946838c-0.68261 0-1.36522 0.426631-2.04783 0.426631a59.899008 59.899008 0 0 0-59.728356 59.813682L0-66.991751V268.425631l191.984001 174.577452 257.855846-180.294309c5.972836-4.180985 12.798933-6.228814 19.539705-6.228814h0.085326a33.447879 33.447879 0 0 1 21.416882 8.959253c0.767936 0.68261 1.962503 0.426631 2.730439 1.109241l298.64178 299.665695v-151.027415c0-19.027748 15.35872-34.471794 34.215815-34.471794s34.215815 15.444046 34.215816 34.471794V649.065911a34.301142 34.301142 0 0 1-34.215816 34.301142H593.358553a34.215815 34.215815 0 0 1 0-68.602283h150.600784L465.539872 335.492042 208.366636 515.189068c-3.15707 2.218482-6.99675 1.279893-10.495125 2.218481-3.754354 1.109241-6.655445 2.559787-10.495126 2.389135a29.864178 29.864178 0 0 1-14.249479-5.2049c-2.389134-1.279893-5.2049-0.68261-7.167403-2.559787L0 361.089909V835.418382L0.085326 836.186318a59.728356 59.728356 0 0 0 59.728356 59.728356L59.984335 896h904.03133l0.255979-0.085326a59.728356 59.728356 0 0 0 59.557704-59.64303v-0.085326z"  horiz-adv-x="1024" />

    
    <glyph glyph-name="error1" unicode="&#58880;" d="M512 384m-512 0a512 512 0 1 1 1024 0 512 512 0 1 1-1024 0ZM607.776 589.76h0.192l-1.44-12.224c-0.096-0.608-0.096-1.216-0.224-1.792l-30.336-255.68h-2.944c1.824-5.056 2.976-10.4 2.976-16.064a48 48 0 0 0-96 0c0 5.664 1.152 11.008 2.944 16.064H480l-30.368 255.776-0.064 0.544-1.6 13.376h0.256c-0.032 0.768-0.224 1.504-0.224 2.272a80 80 0 0 0 160 0c0-0.768-0.224-1.504-0.224-2.272zM528 192a48 48 0 1 0 0-96 48 48 0 0 0 0 96z"  horiz-adv-x="1024" />

    
    <glyph glyph-name="radarmap" unicode="&#58933;" d="M791.630769-57.107692H232.369231c-7.876923 0-15.753846 3.938462-19.692308 11.815384L39.384615 490.338462c0 7.876923 0 15.753846 7.876923 23.630769l452.923077 330.830769c7.876923 3.938462 15.753846 3.938462 23.63077 0l452.923077-330.830769c7.876923-7.876923 7.876923-15.753846 7.876923-23.630769l-173.292308-531.692308c-3.938462-7.876923-11.815385-15.753846-19.692308-15.753846z m-543.507692 39.384615h531.692308L945.230769 486.4l-433.230769 315.076923-429.292308-311.138461 165.415385-508.061539zM496.246154 376.123077h-3.938462l-433.230769 94.523077c-11.815385 3.938462-15.753846 11.815385-15.753846 23.630769 3.938462 11.815385 11.815385 15.753846 23.630769 15.753846L476.553846 423.384615l27.569231 378.092308c0 11.815385 11.815385 19.692308 19.692308 19.692308 11.815385 0 19.692308-11.815385 19.692307-19.692308L512 399.753846c0-3.938462-3.938462-11.815385-7.876923-15.753846 0-3.938462-3.938462-7.876923-7.876923-7.876923zM775.876923-41.353846c-7.876923 0-11.815385 3.938462-15.753846 7.876923l-263.876923 389.907692-232.369231-374.153846c-3.938462-7.876923-19.692308-11.815385-27.569231-7.876923-7.876923 3.938462-11.815385 19.692308-7.876923 27.569231l248.123077 401.723077c3.938462 3.938462 7.876923 7.876923 15.753846 7.876923s11.815385-3.938462 15.753846-7.876923L791.630769-9.846154c7.876923-7.876923 3.938462-19.692308-3.938461-27.569231-3.938462 0-7.876923-3.938462-11.815385-3.938461zM496.246154 376.123077c-7.876923 0-15.753846 7.876923-19.692308 15.753846-3.938462 11.815385 3.938462 19.692308 15.753846 23.630769l464.738462 94.523077c11.815385 3.938462 19.692308-3.938462 23.630769-15.753846 3.938462-11.815385-3.938462-19.692308-15.753846-23.630769l-468.676923-94.523077c3.938462 0 0 0 0 0zM653.784615 139.815385h-7.876923l-240.246154 106.338461s-3.938462 0-3.938461 3.938462l-256 204.8c-3.938462 3.938462-7.876923 11.815385-7.876923 19.692307s7.876923 11.815385 11.815384 15.753847l338.707693 122.092307h15.753846l279.630769-137.846154c7.876923-3.938462 11.815385-15.753846 7.876923-23.630769L669.538462 159.507692c0-11.815385 0-15.753846-7.876924-15.753846 0-3.938462-3.938462-3.938462-7.876923-3.938461z m-228.430769 141.784615l220.553846-98.461538 106.338462 256-256 126.030769L196.923077 462.769231l228.430769-181.169231z"  horiz-adv-x="1024" />

    
    <glyph glyph-name="template" unicode="&#59101;" d="M822.08 397.226667h-188.032a112.96 112.96 0 0 0-112.832 112.832V698.112a112.96 112.96 0 0 0 112.832 112.832h188.032a112.96 112.96 0 0 0 112.832-112.832v-188.053333a112.96 112.96 0 0 0-112.832-112.832zM634.048 752.448a54.4 54.4 0 0 1-54.336-54.314667v-188.053333a54.4 54.4 0 0 1 54.336-54.336h188.032a54.4 54.4 0 0 1 54.336 54.336V698.112a54.4 54.4 0 0 1-54.336 54.314667h-188.032zM822.08-42.410667h-188.032a112.981333 112.981333 0 0 0-112.832 112.853334v188.053333a112.96 112.96 0 0 0 112.832 112.810667h188.032a112.938667 112.938667 0 0 0 112.832-112.810667v-188.053333a112.96 112.96 0 0 0-112.832-112.853334z m-188.032 355.221334a54.4 54.4 0 0 1-54.336-54.314667v-188.053333a54.4 54.4 0 0 1 54.336-54.357334h188.032a54.4 54.4 0 0 1 54.336 54.357334v188.053333a54.4 54.4 0 0 1-54.336 54.314667h-188.032zM388.544-42.410667H200.469333a112.96 112.96 0 0 0-112.810666 112.853334v188.053333a112.938667 112.938667 0 0 0 112.810666 112.810667h188.053334a112.96 112.96 0 0 0 112.832-112.810667v-188.053333a112.938667 112.938667 0 0 0-112.810667-112.853334zM200.469333 312.810667a54.4 54.4 0 0 1-54.314666-54.314667v-188.053333a54.4 54.4 0 0 1 54.314666-54.357334h188.053334a54.4 54.4 0 0 1 54.336 54.357334v188.053333a54.4 54.4 0 0 1-54.336 54.314667H200.469333zM388.544 405.589333H200.469333a104.597333 104.597333 0 0 0-104.448 104.469334V698.112c0 57.6 46.869333 104.469333 104.448 104.469333h188.053334c57.6 0 104.469333-46.869333 104.469333-104.469333v-188.053333a104.533333 104.533333 0 0 0-104.448-104.469334zM200.469333 760.789333a62.741333 62.741333 0 0 1-62.677333-62.677333v-188.053333a62.72 62.72 0 0 1 62.677333-62.677334h188.053334a62.741333 62.741333 0 0 1 62.677333 62.677334V698.112a62.741333 62.741333 0 0 1-62.677333 62.677333H200.469333z"  horiz-adv-x="1024" />

    
    <glyph glyph-name="icon" unicode="&#58890;" d="M724.31616 206.21312l-34.48832-34.46784L512 349.51168l-177.78688-177.7664-34.46784 34.46784L477.51168 384l-177.7664 177.82784 34.46784 34.48832L512 418.52928l177.82784 177.7664 34.48832-34.46784L546.52928 384l177.7664-177.78688zM121.89696 896H1024v-902.10304A121.91744 121.91744 0 0 0 902.10304-128H0V774.10304A121.91744 121.91744 0 0 0 121.89696 896zM975.2576 847.23712H121.89696a73.15456 73.15456 0 0 1-73.13408-73.13408V-79.2576h853.34016c40.38656 0 73.13408 32.768 73.13408 73.13408V847.2576z"  horiz-adv-x="1024" />

    
    <glyph glyph-name="chartt" unicode="&#58888;" d="M63.5 751v-735.3h895.7V751H63.5z m863.7-127.9v-127.9H703.3V623.1h223.9zM383.4 399.3h287.9v-127.9H383.4V399.3z m-32-127.9H95.5V399.3h255.9v-127.9z m351.9 127.9h223.9v-127.9H703.3V399.3z m-32 223.8v-127.9H383.4V623.1h287.9z m-319.9 0v-127.9H95.5V623.1h255.9zM95.5 47.60000000000002V175.5h255.9v-127.9H95.5z m287.9 0V175.5h287.9v-127.9H383.4z m319.9 0V175.5h223.9v-127.9H703.3z"  horiz-adv-x="1024" />

    
    <glyph glyph-name="Template" unicode="&#58909;" d="M28.444444 810.666667m113.777778 0l186.567111 0q113.777778 0 113.777778-113.777778l0-199.111111q0-113.777778-113.777778-113.777778l-186.567111 0q-113.777778 0-113.777778 113.777778l0 199.111111q0 113.777778 113.777778 113.777778ZM28.444444 298.666667m113.777778 0l186.567111 0q113.777778 0 113.777778-113.777778l0-199.111111q0-113.777778-113.777778-113.777778l-186.567111 0q-113.777778 0-113.777778 113.777778l0 199.111111q0 113.777778 113.777778 113.777778ZM751.944917 894.60731m80.453038-80.453039l131.92287-131.922869q80.453038-80.453038 0-160.906077l-140.792817-140.792816q-80.453038-80.453038-160.906077 0l-131.922869 131.922869q-80.453038 80.453038 0 160.906076l140.792817 140.792817q80.453038 80.453038 160.906076 0ZM540.444444 298.666667m113.777778 0l186.567111 0q113.777778 0 113.777778-113.777778l0-199.111111q0-113.777778-113.777778-113.777778l-186.567111 0q-113.777778 0-113.777778 113.777778l0 199.111111q0 113.777778 113.777778 113.777778Z"  horiz-adv-x="1024" />

    
    <glyph glyph-name="chart4" unicode="&#58954;" d="M309.45 31h-86.29a8 8 0 0 0-8 8V190.476a8 8 0 0 0 8 8h86.29a8 8 0 0 0 8-8V39a8 8 0 0 0-8-8z m168.479 0h-86.29a8 8 0 0 0-8 8V274.715a8 8 0 0 0 8 8h86.29a8 8 0 0 0 8-8V39a8 8 0 0 0-8-8z m178.507 0h-86.29a8 8 0 0 0-8 8V360.96a8 8 0 0 0 8 8h86.29a8 8 0 0 0 8-8V39a8 8 0 0 0-8-8z m172.49 0h-86.29a8 8 0 0 0-8 8V442.19a8 8 0 0 0 8 8h86.29a8 8 0 0 0 8-8V39a8 8 0 0 0-8-8z m-24.752 535.898l-18.849 16.93c-7.853 7.053-21.99 7.053-31.414 0L534.01 386.314c-7.854-7.053-21.99-7.053-31.415 0l-51.833 46.557c-7.854 7.054-21.99 7.054-31.415 0L214.85 249.196c-6.081-5.463-15.302-5.463-21.383 0l-28.577 25.667c-7.853 7.054-7.853 19.75 0 28.215l256.028 229.96c7.853 7.054 21.99 7.054 31.414 0l51.834-46.556c7.854-7.054 21.99-7.054 31.415 0l164.925 148.134c7.854 7.054 7.854 19.75 0 28.216l-21.99 18.34c-6.283 5.643-3.141 14.108 4.712 16.93l166.497 36.68c7.854 1.411 15.707-4.232 12.566-11.286l-39.268-150.955c-1.571-8.465-12.566-9.876-18.849-5.643zM0 896h1024v-1024H0z"  horiz-adv-x="1024" />

    
    <glyph glyph-name="invalid-name" unicode="&#59000;" d="M117.333333 810.666667a32 32 0 0 0 32-32v-757.333334h757.333334a32 32 0 0 0 0-64H117.333333a32 32 0 0 0-32 32V778.666667a32 32 0 0 0 32 32zM613.408 400.117333a32 32 0 0 1 37.536 1.312l232.725333 181.333334a32 32 0 0 1-39.338666 50.474666L629.898667 466.165333l-203.786667 137.173334a32 32 0 0 1-35.978667-0.16L205.898667 476.757333a32 32 0 0 1 36.202666-52.768L408.426667 538.101333 613.408 400.106667zM613.408 165.450667a32 32 0 0 1 37.536 1.312l232.725333 181.333333a32 32 0 0 1-39.338666 50.474667L629.898667 231.498667l-203.786667 137.173333a32 32 0 0 1-35.978667-0.16L205.898667 242.090667a32 32 0 0 1 36.202666-52.768L408.426667 303.434667 613.408 165.44z"  horiz-adv-x="1024" />

    
    <glyph glyph-name="Chart" unicode="&#59148;" d="M204.8 76.8h614.4c30.72 0 51.2-20.48 51.2-51.2 0-30.72-20.48-51.2-51.2-51.2H153.6c-30.72 0-51.2 20.48-51.2 51.2V588.8c0 30.72 20.48 51.2 51.2 51.2 30.72 0 51.2-20.48 51.2-51.2v-512zM619.52 373.76c-15.36 0-25.6 5.12-35.84 15.36l-112.64 107.52-107.52-107.52c-20.48-20.48-51.2-20.48-71.68 0-20.48 20.48-20.48 51.2 0 71.68l143.36 143.36c20.48 20.48 51.2 20.48 71.68 0l107.52-107.52 128 128h-40.96c-30.72 0-51.2 20.48-51.2 51.2 0 30.72 20.48 51.2 51.2 51.2h158.72c15.36 5.12 30.72 0 46.08-15.36 20.48-20.48 20.48-51.2 0-71.68l-250.88-250.88c-10.24-10.24-25.6-15.36-35.84-15.36z"  horiz-adv-x="1024" />

    
    <glyph glyph-name="Erroricon" unicode="&#58943;" d="M717.226667 589.781333a36.010667 36.010667 0 0 1-50.944-0.085333L512 434.986667 357.717333 589.696a36.010667 36.010667 0 0 1-51.029333-50.773333L461.226667 384l-154.453334-154.88a36.010667 36.010667 0 0 1 50.986667-50.816L512 333.013333l154.282667-154.794666a35.84 35.84 0 0 1 50.901333-0.085334 36.010667 36.010667 0 0 1 0.128 50.858667L562.773333 384l154.368 154.88a35.925333 35.925333 0 0 1 0 50.901333zM512 896C229.205333 896 0 666.794667 0 384s229.205333-512 512-512 512 229.205333 512 512S794.794667 896 512 896z m311.082667-823.082667a437.717333 437.717333 0 0 0-139.861334-94.293333c-54.186667-23.04-111.786667-34.602667-171.221333-34.602667-59.392 0-116.992 11.562667-171.178667 34.474667a440.448 440.448 0 0 0-139.946666 94.293333 437.717333 437.717333 0 0 0-94.293334 139.946667A436.608 436.608 0 0 0 72.021333 384c0 59.392 11.562667 116.992 34.474667 171.221333a440.448 440.448 0 0 0 94.293333 139.861334 437.717333 437.717333 0 0 0 139.946667 94.293333c54.272 23.04 111.872 34.645333 171.264 34.645333 59.392 0 116.992-11.605333 171.221333-34.56 52.394667-22.186667 99.413333-53.845333 139.861334-94.293333 40.405333-40.362667 72.234667-87.466667 94.293333-139.861333 23.04-54.314667 34.602667-111.914667 34.602667-171.306667a437.461333 437.461333 0 0 0-128.853334-311.082667z"  horiz-adv-x="1024" />

    
    <glyph glyph-name="chart5" unicode="&#59260;" d="M512 640a42.666667 42.666667 0 0 1-42.666667-42.666667v-426.666666a42.666667 42.666667 0 0 1 85.333334 0V597.333333a42.666667 42.666667 0 0 1-42.666667 42.666667z m-213.333333-256a42.666667 42.666667 0 0 1-42.666667-42.666667v-170.666666a42.666667 42.666667 0 0 1 85.333333 0v170.666666a42.666667 42.666667 0 0 1-42.666666 42.666667z m426.666666 85.333333a42.666667 42.666667 0 0 1-42.666666-42.666666v-256a42.666667 42.666667 0 0 1 85.333333 0v256a42.666667 42.666667 0 0 1-42.666667 42.666666z m85.333334 341.333334H213.333333a128 128 0 0 1-128-128v-597.333334a128 128 0 0 1 128-128h597.333334a128 128 0 0 1 128 128V682.666667a128 128 0 0 1-128 128z m42.666666-725.333334a42.666667 42.666667 0 0 0-42.666666-42.666666H213.333333a42.666667 42.666667 0 0 0-42.666666 42.666666V682.666667a42.666667 42.666667 0 0 0 42.666666 42.666666h597.333334a42.666667 42.666667 0 0 0 42.666666-42.666666z"  horiz-adv-x="1024" />

    
    <glyph glyph-name="template1" unicode="&#58974;" d="M361.304747 798.464v-386.474667c0-3.072-1.706667-6.826667-6.826667-6.826666H95.747413c-5.034667 0-6.826667 3.754667-6.826666 6.826666V798.464c0 4.949333 3.669333 6.741333 6.826666 6.741333h258.901334c4.949333 0 6.741333-3.669333 6.741333-6.826666M418.307413 896H29.187413C12.376747 893.44 0.003413 880.896 0.003413 866.133333V348.16c0-16.213333 13.653333-29.952 29.952-29.952h388.266667c16.298667 0 30.037333 13.653333 30.037333 29.952V866.048c0 16.213333-13.653333 29.952-29.952 29.952M361.304747 108.714667V-26.453333c0-3.072-1.706667-6.826667-6.826667-6.826667H95.747413c-5.034667 0-6.826667 3.754667-6.826666 6.826667V108.714667c0 5.034667 3.669333 6.826667 6.826666 6.826666h258.901334c4.949333 0 6.741333-3.669333 6.741333-6.826666M414.467413 202.410667H36.27008A31.573333 31.573333 0 0 1 11.18208 194.56 34.730667 34.730667 0 0 1 0.003413 168.618667v-255.061334c0-18.602667 16.042667-33.792 35.754667-33.792h378.709333a34.730667 34.730667 0 0 1 33.792 33.792V168.618667a34.730667 34.730667 0 0 1-33.792 33.792M925.528747 361.813333v-386.474666c0-4.949333-3.669333-6.741333-6.826667-6.741334H659.800747c-5.034667 0-6.826667 3.669333-6.826667 6.826667V361.728c0 3.072 1.792 6.826667 6.826667 6.826667H918.70208c5.034667 0 6.826667-3.754667 6.826667-6.826667M963.075413 453.546667H617.39008c-27.733333 0-51.2-23.466667-51.2-51.2v-471.381334c0-27.818667 23.466667-51.2 51.2-51.2h343.893333a52.224 52.224 0 0 1 53.162667 51.2V402.346667c0 27.733333-23.466667 51.2-51.2 51.2M653.059413 665.088V800.426667c0 3.157333 1.706667 6.826667 6.826667 6.826666h258.816c5.034667 0 6.826667-3.669333 6.826667-6.826666v-135.253334c0-4.949333-3.669333-6.741333-6.826667-6.741333H659.800747c-4.949333 0-6.826667 3.669333-6.826667 6.826667M984.49408 893.952H594.09408c-16.213333 0-29.866667-13.653333-29.866667-29.866667v-264.789333c0-16.213333 13.653333-29.866667 29.866667-29.866667h388.352c17.578667 0 31.914667 13.397333 31.914667 29.866667V866.133333c0 15.701333-13.141333 27.989333-29.952 27.989334"  horiz-adv-x="1024" />

    
    <glyph glyph-name="radar" unicode="&#58882;" d="M499.809524 871.619048L0 490.25219 190.927238-128h617.764572L999.619048 490.25219 499.809524 871.619048z m396.361143-378.343619l-63.975619-15.018667-302.908953 194.438095v100.449524l366.884572-279.893333z m-443.830857-144.944762l-139.946667-226.913524L269.897143 391.314286l182.418286-43.008z m-159.939048 100.449523l177.93219 150.430477v-192.414477l-177.956571 41.984zM499.809524 311.83238100000005l64.487619-103.960381-185.953524-92.476952L499.809524 311.83238100000005z m47.494095 36.498286l195.413333 46.470095-131.462095-149.455238-63.951238 102.985143z m-18.505143 57.977904v201.411048l229.424762-146.944-229.424762-54.491429zM470.820571 773.168762v-103.960381L226.913524 463.750095l-123.465143 28.988953 367.37219 280.380952zM77.970286 436.297143l136.435809-32.012191 55.491048-351.841523-48.981333-78.994286-142.945524 462.823619z m187.928381-502.808381l57.977904 93.45219 269.409524 133.461334 140.434286-227.425524H265.898667v0.487619z m512.804571 39.984762l-138.435048 223.914666 192.902096 217.916953 88.478476 20.967619-142.945524-462.823619z"  horiz-adv-x="1024" />

    
    <glyph glyph-name="chart6" unicode="&#58944;" d="M950.857143 822.857143H0v-877.714286h1024V822.857143h-73.142857zM73.142857 522.971429h241.371429V310.857143H73.142857V522.971429z m563.2 0V310.857143H387.657143V522.971429h248.685714zM73.142857 18.285714V237.714286h241.371429v-219.428572H73.142857z m314.514286 0V237.714286h241.371428v-219.428572H387.657143z m563.2 0H709.485714V237.714286H950.857143v-219.428572z m0 292.571429H709.485714V522.971429H950.857143V310.857143z m0 285.257143H73.142857V749.714286h877.714286v-153.6z"  horiz-adv-x="1024" />

    
    <glyph glyph-name="model1" unicode="&#58967;" d="M883.9-9.4H146c-42.4 0-77 34.5-77 77v653c0 42.4 34.5 77 77 77h737.9c42.4 0 76.9-34.5 76.9-77v-653c0-42.5-34.5-77-76.9-77zM146 755.1c-19.1 0-34.5-15.4-34.5-34.5v-653c0-19.1 15.4-34.5 34.5-34.5h737.9c19.1 0 34.5 15.4 34.5 34.5v653c0 19.1-15.4 34.5-34.5 34.5H146z m0 0M320.5 569.9h69.9l123.8-285.4h2l123.3 285.4h69.8V206h-59.7V456.7h-2l-107-250.6h-51.4L382.1 456.8h-2v-250.7h-59.7V569.9z m0 0"  horiz-adv-x="1024" />

    
    <glyph glyph-name="Errorcorrection-copy" unicode="&#58883;" d="M940.75107555 96.92319289L555.49648592 763.04080592c-23.61237808 39.7682157-80.77918815 39.7682157-104.39156622 0l-385.25458962-666.11761303c-23.61237808-39.7682157 6.2137837-89.47848533 52.1957831-89.47848534h771.751936c45.98199941 0 74.56540445 49.71026963 50.95302637 89.47848534z m-391.46837333 497.10269629L531.88410785 284.57946074999995h-55.92405333l-17.39859437 309.44642843h90.72124207z m-44.73924267-505.80199348c-31.06891852 0-55.92405333 24.85513482-55.92405333 55.92405333s24.85513482 55.92405333 55.92405333 55.92405334 55.92405333-24.85513482 55.92405334-55.92405334c0-33.554432-24.85513482-55.92405333-55.92405334-55.92405333z"  horiz-adv-x="1024" />

    
    <glyph glyph-name="Model" unicode="&#58918;" d="M875.65 652.09c0 54.24-51.17 54.24-51.17 54.24H200.26s-51.16 0-51.16-54.24v-46.53c0-4.26 3.4-7.72 7.58-7.72h713.44c4.19 0 7.58 3.46 7.58 7.72v46.53h-2.05zM720.1 853.31H304.64s-45.62 0-50.71-45.66c-0.51-4.57 3.02-8.58 7.54-8.58h503.52c4.63 0 8.21 4.21 7.5 8.87-6.96 45.37-52.39 45.37-52.39 45.37z m259.93-298.14l-17.77 18.11c-4.77 4.86-12.93 1.42-12.93-5.47v-59.17c0-4.27-3.39-7.72-7.58-7.72H83c-4.19 0-7.58 3.46-7.58 7.72v59.17c0 6.88-8.16 10.33-12.93 5.46l-17.77-18.11c-30.7-31.3-53.21-39.64-40.93-106.41 12.28-66.76 71.63-429.78 79.82-479.85 10.24-54.24 63.45-54.24 63.45-54.24h728.59s53.21 0 63.45 54.24c8.18 50.08 67.53 413.09 81.86 479.85 12.28 66.78-10.23 75.12-40.93 106.42zM720.1 269.35s0-54.24-51.17-54.24H355.81c-51.17 0-51.17 54.24-51.17 54.24v98.68c0 4.27 3.39 7.72 7.58 7.72h58.53c4.18 0 7.57-3.46 7.57-7.72v-70.09c0-4.27 3.39-7.72 7.58-7.72h255c4.18 0 7.58 3.46 7.58 7.72v70.09c0 4.27 3.39 7.72 7.57 7.72h58.37c4.25 0 7.66-3.55 7.57-7.88l-1.89-98.52z m0 0"  horiz-adv-x="1024" />

    
    <glyph glyph-name="process" unicode="&#59086;" d="M965.426743 354.163614C955.038827 556.394249 811.004092 726.530556 615.449711 771.549827 601.95866 774.65565 588.504235 766.236759 585.398411 752.745707 582.292589 739.254655 590.711479 725.80023 604.20253 722.694407 778.021961 682.678816 906.125274 531.360979 915.359418 351.591821 916.0696 337.766112 927.853267 327.133875 941.678976 327.844055 955.504687 328.554236 966.136924 340.337903 965.426743 354.163614L965.426743 354.163614ZM386.693427 765.047806C195.197668 709.223966 61.059829 533.05174 61.059829 330.591454 61.059829 286.486225 67.378292 243.199108 79.687136 201.705457 83.62428 188.433173 97.575277 180.865549 110.847561 184.802692 124.119844 188.739836 131.68747 202.690833 127.750327 215.963117 116.810772 252.840832 111.193162 291.326477 111.193162 330.591454 111.193162 510.619396 230.48234 667.289878 400.724023 716.917841 414.014746 720.792283 421.648149 734.707399 417.773707 747.998121 413.899266 761.288844 399.984149 768.922248 386.693427 765.047806L386.693427 765.047806ZM196.356828 7.892425C280.412745-74.736506 393.28759-121.894018 513.545299-121.894018 643.321289-121.894018 764.304599-66.930765 849.557581 27.536962 858.832625 37.814519 858.019927 53.665035 847.742372 62.940077 837.464815 72.215121 821.6143 71.402426 812.339255 61.124868 736.494948-22.917229 628.982336-71.760685 513.545299-71.760685 406.569346-71.760685 306.273973-29.858699 231.501677 43.644218 221.62909 53.349199 205.758337 53.213329 196.053355 43.340745 186.348373 33.46816 186.484242 17.597406 196.356828 7.892425L196.356828 7.892425ZM498.280341 610.823932C571.138502 610.823932 630.201709 669.88714 630.201709 742.745299 630.201709 815.603459 571.138502 874.666667 498.280341 874.666667 425.422182 874.666667 366.358974 815.603459 366.358974 742.745299 366.358974 669.88714 425.422182 610.823932 498.280341 610.823932L498.280341 610.823932ZM498.280341 660.957265C453.110059 660.957265 416.492307 697.575015 416.492307 742.745299 416.492307 787.915583 453.110059 824.533333 498.280341 824.533333 543.450626 824.533333 580.068375 787.915583 580.068375 742.745299 580.068375 697.575015 543.450626 660.957265 498.280341 660.957265L498.280341 660.957265ZM131.921367-30.304273C204.779527-30.304273 263.842735 28.758935 263.842735 101.617094 263.842735 174.475253 204.779527 233.538462 131.921367 233.538462 59.063208 233.538462 0 174.475253 0 101.617094 0 28.758935 59.063208-30.304273 131.921367-30.304273L131.921367-30.304273ZM131.921367 19.82906C86.751084 19.82906 50.133333 56.44681 50.133333 101.617094 50.133333 146.787377 86.751084 183.405129 131.921367 183.405129 177.091651 183.405129 213.709402 146.787377 213.709402 101.617094 213.709402 56.44681 177.091651 19.82906 131.921367 19.82906L131.921367 19.82906ZM895.169231 0.225641C968.02739 0.225641 1027.090598 59.288849 1027.090598 132.147008 1027.090598 205.005169 968.02739 264.068375 895.169231 264.068375 822.311072 264.068375 763.247863 205.005169 763.247863 132.147008 763.247863 59.288849 822.311072 0.225641 895.169231 0.225641L895.169231 0.225641ZM895.169231 50.358974C849.998946 50.358974 813.381197 86.976725 813.381197 132.147008 813.381197 177.317293 849.998946 213.935042 895.169231 213.935042 940.339516 213.935042 976.957265 177.317293 976.957265 132.147008 976.957265 86.976725 940.339516 50.358974 895.169231 50.358974L895.169231 50.358974Z"  horiz-adv-x="1028" />

    
    <glyph glyph-name="electrical" unicode="&#59092;" d="M370.99187 125.398374 670.699187 125.398374 645.723578 150.373984 645.723578 50.471546 670.699187 75.447155 370.99187 75.447155 395.967479 50.471546 395.967479 150.373984 370.99187 125.398374 370.99187 125.398374ZM370.99187 175.349594 346.01626 175.349594 346.01626 150.373984 346.01626 50.471546 346.01626 25.495936 370.99187 25.495936 670.699187 25.495936 695.674797 25.495936 695.674797 50.471546 695.674797 150.373984 695.674797 175.349594 670.699187 175.349594 370.99187 175.349594 370.99187 175.349594ZM271.089431 649.886178 271.089431 849.691057 246.113822 824.715447 395.967479 824.715447 370.99187 849.691057 370.99187 649.886178 420.943089 649.886178 420.943089 849.691057 420.943089 874.666667 395.967479 874.666667 246.113822 874.666667 221.138211 874.666667 221.138211 849.691057 221.138211 649.886178 271.089431 649.886178 271.089431 649.886178ZM670.699187 649.886178 670.699187 849.691057 645.723578 824.715447 795.577235 824.715447 770.601626 849.691057 770.601626 649.886178 820.552845 649.886178 820.552845 849.691057 820.552845 874.666667 795.577235 874.666667 645.723578 874.666667 620.747968 874.666667 620.747968 849.691057 620.747968 649.886178 670.699187 649.886178 670.699187 649.886178ZM518.451452 612.422765 920.455262 612.422765 923.213357 612.575522C937.807279 614.197069 941.097152 612.155377 942.987091 604.637148 945.984582 592.713041 943.254669 571.543893 934.89696 544.5113 921.442901 500.99481 893.19792 443.288753 874.363055 413.466882 860.952322 392.233222 840.537295 366.549649 814.418007 337.567452 802.468169 324.307804 789.457762 310.505796 775.552122 296.284098 749.051078 269.180717 720.601165 241.853303 692.145451 215.699977 682.182899 206.543507 672.935959 198.19219 664.645611 190.818112 659.693062 186.412934 656.176173 183.326396 654.335411 181.729961L670.699187 187.837397 520.845527 187.837397 520.845527 137.886178 670.699187 137.886178 680.020811 137.886178 687.062963 143.993617C689.056909 145.722903 692.730099 148.946615 697.843661 153.495012 706.330161 161.043561 715.777427 169.575804 725.947095 178.92263 755.012011 205.635868 784.082726 233.559593 811.267603 261.362347 825.625463 276.046545 839.095669 290.336326 851.523968 304.126878 879.378679 335.034718 901.420233 362.764576 916.596256 386.79328 937.611232 420.066993 967.7329 481.607223 982.619403 529.756881 993.455917 564.807055 997.202187 593.857542 991.43111 616.815046 983.167678 649.687211 956.096139 666.487779 917.697167 662.221226L920.455262 662.373984 518.451452 662.373984 518.451452 612.422765 518.451452 612.422765ZM519.564585 662.373984 117.560772 662.373984 120.318867 662.221226C81.919896 666.487779 54.848356 649.687211 46.584924 616.815046 40.813847 593.857542 44.560117 564.807055 55.396632 529.756881 70.283135 481.607223 100.404802 420.066993 121.419778 386.79328 136.595803 362.764576 158.637355 335.034718 186.492066 304.126878 198.920365 290.336326 212.39057 276.046545 226.748431 261.362347 253.933308 233.559593 283.004023 205.635868 312.068939 178.92263 322.238607 169.575804 331.685873 161.043561 340.172373 153.495012 345.285937 148.946615 348.959125 145.722903 350.953073 143.993617L357.995223 137.886178 367.316847 137.886178 542.146116 137.886178 542.146116 187.837397 367.316847 187.837397 383.680623 181.729961C381.839861 183.326396 378.322972 186.412934 373.370423 190.818112 365.080075 198.19219 355.833135 206.543507 345.870583 215.699977 317.414869 241.853303 288.964958 269.180717 262.463913 296.284098 248.558272 310.505796 235.547866 324.307804 223.598028 337.567452 197.47874 366.549649 177.063713 392.233222 163.65298 413.466882 144.818114 443.288753 116.573134 500.99481 103.119074 544.5113 94.761367 571.543893 92.031452 592.713041 95.028944 604.637148 96.918883 612.155377 100.208756 614.197069 114.802678 612.575522L117.560772 612.422765 519.564585 612.422765 519.564585 662.373984 519.564585 662.373984ZM395.967479 37.98374 395.967479-99.382114C395.967479-113.175763 407.14944-124.357724 420.943089-124.357724 434.736738-124.357724 445.918699-113.175763 445.918699-99.382114L445.918699 37.98374C445.918699 51.777389 434.736738 62.959349 420.943089 62.959349 407.14944 62.959349 395.967479 51.777389 395.967479 37.98374L395.967479 37.98374ZM595.772358 37.98374 595.772358-99.382114C595.772358-113.175763 606.954319-124.357724 620.747968-124.357724 634.541615-124.357724 645.723578-113.175763 645.723578-99.382114L645.723578 37.98374C645.723578 51.777389 634.541615 62.959349 620.747968 62.959349 606.954319 62.959349 595.772358 51.777389 595.772358 37.98374L595.772358 37.98374Z"  horiz-adv-x="1024" />

    
    <glyph glyph-name="rfq1" unicode="&#59115;" d="M95.626718 553.988173C226.725812 99.524267 373.457047-54.361353 373.457047-54.361353 354.007987-23.039507 336.150869 26.36963 328.843074 104.645442 317.833444 223.162103 333.638238 324.665647 365.880738 411.399964 243.010105 519.06067 95.626718 553.988173 95.626718 553.988173M154.453485 493.914643C200.141559 475.712474 262.516736 445.407383 320.940715 398.97126 295.910059 321.999454 284.689446 239.465585 287.432249 152.654394 229.430272 272.68627 180.999358 411.936996 154.453485 493.914643M642.80007 680.666453C454.312695 534.47225 369.803151 340.99769 391.669001 105.614071 404.577508-33.521664 446.065058-83.659625 480.570786-84.177502L464.592593-84.196693C662.690323-84.196693 842.6807 541.626596 906.39853 822.065304 854.821926 804.380824 746.413321 761.033007 642.80007 680.666453ZM479.957143-122.538624C448.174914-122.059108 372.143181-99.215068 353.461325 102.065683 298.259684 696.81645 921.148303 867.197156 927.439454 868.865896L957.62963 876.787484 951.05062 846.271147C950.53293 843.87347 898.438257 604.00147 817.05529 367.23674 705.328546 42.241517 592.719644-122.557805 482.393126-122.557805L479.957143-122.538624Z"  horiz-adv-x="1024" />

    
    <glyph glyph-name="wxbbaobiao" unicode="&#58904;" d="M941.590594-0.266827 125.566322-0.266827 125.566322 815.822936c0 12.017708-9.710153 21.665439-21.664416 21.665439-11.997242 0-21.665439-9.648754-21.665439-21.665439l0-837.751109c0-11.932774 9.66922-21.666462 21.665439-21.666462l837.688687 0c11.974729 0 21.666462 9.733689 21.666462 21.666462C963.257056-9.912511 953.566346-0.266827 941.590594-0.266827M204.97079 191.16818c6.368034 0 12.695137 2.792603 16.989953 8.207939L387.391493 407.821545l204.846458-204.889437c4.487198-4.486174 10.749832-6.941086 16.926508-6.347568 6.262634 0.50756 12.017708 3.640923 15.741519 8.632611l258.204713 344.868515c7.193843 9.56382 5.248537 23.104207-4.358261 30.29805-9.562796 7.193843-23.146163 5.246491-30.336936-4.315282L605.270778 251.255697 400.889925 455.638597c-4.40124 4.315282-10.156314 6.770194-16.587793 6.262634-6.1777-0.338714-11.932774-3.302209-15.741519-8.125051L188.024839 226.290095c-7.448646-9.309016-5.882987-23.019273 3.469008-30.464849C195.534883 192.692906 200.252325 191.16818 204.97079 191.16818"  horiz-adv-x="1024" />

    
    <glyph glyph-name="data" unicode="&#59223;" d="M1024 384C1024 666.769792 794.769792 896 512 896 229.230208 896 0 666.769792 0 384 0 101.230208 229.230208-128 512-128 625.686419-128 733.786972-90.820171 822.292028-23.295213 832.066406-15.83785 833.944717-1.868762 826.487354 7.905617 819.029988 17.679996 805.0609 19.558308 795.286522 12.100943 714.473916-49.555057 615.842022-83.478261 512-83.478261 253.818886-83.478261 44.521739 125.818886 44.521739 384 44.521739 642.181114 253.818886 851.478261 512 851.478261 770.181114 851.478261 979.478261 642.181114 979.478261 384 979.478261 296.952627 955.670714 213.458976 911.318368 140.798694 904.912864 130.304873 908.227102 116.605263 918.720924 110.199761 929.214746 103.794257 942.914355 107.108495 949.319857 117.602317 997.906701 197.199765 1024 288.709606 1024 384ZM368.901888 420.424055 338.700849 417.813865 563.838502 242.092789 581.396516 228.38867 595.091066 245.954153 840.321161 560.501594C847.880329 570.197455 846.148198 584.185421 836.452335 591.744589 826.756474 599.303757 812.768508 597.571625 805.20934 587.875763L559.979243 273.328322 591.231806 277.189685 366.094153 452.910761 349.780358 465.643759 335.893114 450.300567 176.846524 274.579482C168.596353 265.464361 169.297534 251.38701 178.412655 243.136838 187.527777 234.886667 201.605128 235.587849 209.855299 244.70297L368.901888 420.424055Z"  horiz-adv-x="1024" />

    
    <glyph glyph-name="wangluo" unicode="&#58903;" d="M736.232934 777.807798h-448.922521L62.848129 389.029325 287.309389 0.250852h448.922521l224.46126 388.778473L736.232934 777.807798zM714.634073 37.66055H308.90825l-202.862399 351.368775L308.909274 740.397076h405.725823l202.862399-351.368775L714.634073 37.66055zM680.117875 374.352952c-14.008799 0-26.808389-5.145024-36.64076-13.634057l-136.371287 77.926889A93.415201 93.415201 0 0 1 511.771674 467.878734a93.632265 93.632265 0 0 1-3.184284 24.257891l95.178332 47.589166c10.092438-9.734078 23.812501-15.731998 38.941431-15.731998 30.991985 0 56.115059 25.124098 56.115059 56.115059 0 30.991985-25.124098 56.115059-56.115059 56.115059-30.991985 0-56.115059-25.124098-56.115059-56.115059 0-2.346745 0.16075-4.653559 0.44027-6.924537l-95.186523-47.593261c-17.122434 21.805686-43.725023 35.813461-73.599949 35.813461-51.652967 0-93.525781-41.872814-93.525781-93.525781 0-39.839378 24.913178-73.854896 60.006848-87.333323l-13.646344-81.87499c-26.33945-4.618747-46.361528-27.590638-46.361528-55.252948 0-30.991985 25.124098-56.115059 56.11506-56.115059 30.991985 0 56.115059 25.124098 56.115059 56.115059 0 21.142208-11.696866 39.544499-28.96674 49.112708l13.648391 81.891372c26.64252 0.949142 50.444782 13.038156 66.891453 31.755803l136.38562-77.934055a56.411986 56.411986 0 0 1-0.907162-10.004384c0-30.991985 25.124098-56.115059 56.115059-56.115059 30.991985 0 56.115059 25.124098 56.115059 56.115059 0.002048 30.989937-25.121026 56.114035-56.113011 56.114035z"  horiz-adv-x="1024" />

    
    <glyph glyph-name="dashuju" unicode="&#58906;" d="M736.232934 777.807798h-448.922521L62.848129 389.029325 287.309389 0.250852h448.922521l224.46126 388.778473L736.232934 777.807798zM714.634073 37.66055H308.90825l-202.862399 351.368775L308.909274 740.397076h405.725823l202.862399-351.368775L714.634073 37.66055zM702.027997 428.420241c-1.821492 0-3.613291-0.121842-5.377446-0.334811l-57.531092 89.131266c9.021454 11.03134 14.444974 25.115907 14.444974 40.445518 0 35.285136-28.706673 63.992833-63.992833 63.992833s-63.992833-28.707697-63.992833-63.992833c0-20.231974 9.448414-38.289216 24.153455-50.023965L432.361176 272.709809a57.620171 57.620171 0 0 1-6.604061 0.392148 57.306862 57.306862 0 0 1-12.382869-1.360744l-56.37615 88.752428a44.318876 44.318876 0 0 1 6.635801 23.387588c0 24.597821-19.941191 44.539012-44.539012 44.539012s-44.539012-19.941191-44.539011-44.539012 19.941191-44.539012 44.539011-44.539011c1.710912 0 3.397252 0.106484 5.057994 0.293855l56.384341-88.764715c-7.465148-9.655239-11.918025-21.757563-11.918025-34.907322 0-31.556146 25.581775-57.137921 57.13792-57.137921s57.137921 25.581775 57.137921 57.137921c0 15.254867-5.989729 29.102916-15.731998 39.349961l119.124962 238.438319a63.816725 63.816725 0 0 1 20.238117 2.214664l57.425632-88.967444a44.329115 44.329115 0 0 1-6.462764-23.117283c0-24.597821 19.941191-44.539012 44.539012-44.539011s44.539012 19.941191 44.539011 44.539011c0 24.596797-19.941191 44.537988-44.539011 44.537988zM564.48641 557.66119c0 13.831667 11.2525 25.08519 25.08519 25.08519s25.08519-11.253524 25.08519-25.08519-11.2525-25.08519-25.08519-25.085191-25.08519 11.253524-25.08519 25.085191z"  horiz-adv-x="1024" />

    
    <glyph glyph-name="wenduzengjia" unicode="&#58926;" d="M496.122 306.986V730.778c0 17.673-14.327 32-32 32H295.4c-17.673 0-32-14.327-32-32v-425.62c-40.723-34.43-64.584-85.204-64.584-138.962 0-100.355 81.645-182 182-182s182 81.645 182 182c-0.001 54.925-24.643 106.364-66.694 140.79z m-115.307-258.79c-65.065 0-118 52.935-118 118 0 38.593 19.005 74.832 50.839 96.941A32.003 32.003 0 0 1 327.4 289.42V698.778h104.722v-407.859a32 32 0 0 1 14.202-26.594c32.868-21.998 52.491-58.682 52.491-98.129 0-65.065-52.934-118-118-118zM396.815 225.577V429.215c0 8.836-7.164 16-16 16s-16-7.164-16-16v-203.638c-26.765-7.069-46.5-31.438-46.5-60.424 0-34.518 27.982-62.5 62.5-62.5s62.5 27.982 62.5 62.5c0 28.986-19.735 53.355-46.5 60.424zM837.436 637.047h-92.975v92.975c0 17.673-14.327 32-32 32s-32-14.327-32-32v-92.975h-92.975c-17.673 0-32-14.327-32-32s14.327-32 32-32h92.975v-92.975c0-17.673 14.327-32 32-32s32 14.327 32 32v92.975h92.975c17.673 0 32 14.327 32 32s-14.328 32-32 32z"  horiz-adv-x="1024" />

    
    <glyph glyph-name="wendu" unicode="&#58929;" d="M615.622 306.986V730.778c0 17.673-14.327 32-32 32H414.9c-17.673 0-32-14.327-32-32v-425.62c-40.723-34.43-64.584-85.204-64.584-138.962 0-100.355 81.645-182 182-182s182 81.645 182 182c-0.001 54.925-24.643 106.364-66.694 140.79z m-115.307-258.79c-65.065 0-118 52.935-118 118 0 38.593 19.005 74.832 50.839 96.941A32.003 32.003 0 0 1 446.9 289.42V698.778h104.722v-407.859a32 32 0 0 1 14.202-26.594c32.868-21.998 52.491-58.682 52.491-98.129 0-65.065-52.934-118-118-118zM516.315 225.577V429.215c0 8.836-7.164 16-16 16s-16-7.164-16-16v-203.638c-26.765-7.069-46.5-31.438-46.5-60.424 0-34.518 27.982-62.5 62.5-62.5s62.5 27.982 62.5 62.5c0 28.986-19.735 53.355-46.5 60.424z"  horiz-adv-x="1024" />

    
    <glyph glyph-name="wendujiangdi" unicode="&#58930;" d="M496.122 306.986V730.778c0 17.673-14.327 32-32 32H295.4c-17.673 0-32-14.327-32-32v-425.62c-40.723-34.43-64.584-85.204-64.584-138.962 0-100.355 81.645-182 182-182s182 81.645 182 182c-0.001 54.925-24.643 106.364-66.694 140.79z m-115.307-258.79c-65.065 0-118 52.935-118 118 0 38.593 19.005 74.832 50.839 96.941A32.003 32.003 0 0 1 327.4 289.42V698.778h104.722v-407.859a32 32 0 0 1 14.202-26.594c32.868-21.998 52.491-58.682 52.491-98.129 0-65.065-52.934-118-118-118zM396.815 225.577V429.215c0 8.836-7.164 16-16 16s-16-7.164-16-16v-203.638c-26.765-7.069-46.5-31.438-46.5-60.424 0-34.518 27.982-62.5 62.5-62.5s62.5 27.982 62.5 62.5c0 28.986-19.735 53.355-46.5 60.424zM837.436 573.047h-249.95c-17.673 0-32 14.327-32 32s14.327 32 32 32h249.949c17.673 0 32-14.327 32-32s-14.327-32-31.999-32z"  horiz-adv-x="1024" />

    
    <glyph glyph-name="xitongyunzhuanqingkuang" unicode="&#58931;" d="M555.03 351.411L379.14 504.245c-4.622 4.4-10.871 7.106-17.756 7.106-14.228 0-25.763-11.534-25.763-25.763 0-3.946 0.89-7.683 2.476-11.026l-0.06-0.044 0.574-0.976c0.349-0.659 0.728-1.3 1.132-1.923l118.295-201.072c10.903-20.09 32.181-33.729 56.645-33.729 35.571 0 64.407 28.836 64.407 64.407 0 20.291-9.394 38.381-24.06 50.186zM927.179 341.095c0.064 3.006 0.104 6.016 0.104 9.033 0 55.605-10.897 109.565-32.391 160.379-20.752 49.064-50.454 93.122-88.281 130.949s-81.885 67.529-130.949 88.282c-50.814 21.493-104.773 32.39-160.379 32.39s-109.565-10.897-160.379-32.39c-49.064-20.752-93.122-50.455-130.949-88.282s-67.529-81.885-88.282-130.949c-21.493-50.814-32.39-104.773-32.39-160.379 0-3.016 0.04-6.025 0.104-9.031a32.44 32.44 0 0 1-0.104-2.466c0-1.465 0.107-2.905 0.298-4.318 1.987-53.249 14.026-104.718 35.87-153.217 23.177-51.458 56.132-96.929 97.95-135.15a31.884 31.884 0 0 1 21.58-8.38c8.673 0 17.317 3.505 23.629 10.411 11.923 13.045 11.014 33.286-2.031 45.209-35.348 32.308-63.196 70.728-82.773 114.193-14.285 31.717-23.596 64.958-27.848 99.252H224.8c17.673 0 32 14.327 32 32s-14.327 32-32 32h-56.902c4.92 85.243 40.44 164.698 101.312 225.57 55.891 55.891 127.45 90.413 204.77 99.5v-60.798c0-17.673 14.327-32 32-32 17.673 0 32 14.327 32 32V697.38c84.411-5.399 163.027-40.829 223.376-101.178 60.872-60.872 96.392-140.327 101.312-225.57h-56.902c-17.673 0-32-14.327-32-32s14.327-32 32-32h54.841c-4.203-33.9-13.352-66.778-27.361-98.17-19.265-43.167-46.697-81.417-81.535-113.689-12.966-12.011-13.739-32.257-1.729-45.222s32.256-13.74 45.222-1.729c41.216 38.181 73.679 83.452 96.486 134.558 21.48 48.13 33.327 99.171 35.296 151.94 0.19 1.411 0.297 2.849 0.297 4.313 0 0.828-0.042 1.648-0.104 2.462z"  horiz-adv-x="1024" />

    
    <glyph glyph-name="shuju01" unicode="&#58938;" d="M351.041 65.198H160.037V353.101H351.04v-287.903z m-127.004 64h63.003V289.101h-63.003v-159.903zM606.835 65.198H415.832V544.21h191.003v-479.012z m-127.003 64h63.003V480.21h-63.003v-351.012zM864.598 65.198H673.594V705.216h191.004v-640.018z m-127.004 64h63.004V641.216h-63.004v-512.018z"  horiz-adv-x="1024" />

    
    <glyph glyph-name="shujudaochu-01" unicode="&#58953;" d="M927.854938 607.969407a31.973697 31.973697 0 0 1-31.970084-31.998984v-489.12423A86.66241 86.66241 0 0 0 809.14297 0.115146H214.85703a86.373415 86.373415 0 0 0-61.476486 25.380996C136.976459 41.90384 127.880338 63.657947 127.880338 86.85703v489.12423A96.127 96.127 0 0 0 224.000113 672.028787h563.179228l-41.904291-42.243861a32.002596 32.002596 0 0 1 45.433644-45.08685l96.000565 96.766401a31.998984 31.998984 0 0 1-0.090311 45.155487l-95.99334 96.007789a32.006209 32.006209 0 0 1-45.256635-45.271085L786.745849 735.968956H224.000113A159.947958 159.947958 0 0 1 63.940169 575.999323v-489.124231A150.566454 150.566454 0 0 1 214.85703-63.825022h594.28594A150.309971 150.309971 0 0 1 959.825022 86.85703v489.12423a31.973697 31.973697 0 0 1-31.970084 31.988147zM287.911382 256.002258V127.995484a31.970084 31.970084 0 1 1 63.940169 0v128.006774a31.970084 31.970084 0 1 1-63.940169 0zM480.093133 511.997742v-384.002258a31.970084 31.970084 0 1 1 63.940169 0V511.997742a31.970084 31.970084 0 1 1-63.940169 0zM671.91364 320.000226V127.995484a31.970084 31.970084 0 1 1 63.940169 0v192.001129a31.970084 31.970084 0 1 1-63.940169 0.003613z"  horiz-adv-x="1024" />

    
    <glyph glyph-name="xitongzhuangtai" unicode="&#58955;" d="M959.825022 704.060283C959.825022 774.7521 902.517291 832.059831 831.825474 832.059831H191.939717C121.2479 832.059831 63.940169 774.7521 63.940169 704.060283v-639.885757C63.940169-6.517291 121.2479-63.825022 191.939717-63.825022h639.885757c70.691817 0 127.999548 57.307731 127.999548 127.999548V704.060283zM146.715595 749.33498a63.839021 63.839021 0 0 0 45.372232 18.784682h639.824346A64.037705 64.037705 0 0 0 895.884854 703.998871V415.906867s0.0289 0 0 0h-50.527184l-54.764574 54.710387a31.970084 31.970084 0 0 1-52.933067-12.506263L698.078535 339.323162l-93.482694 186.965389a31.970084 31.970084 0 0 1-58.279477-2.423947l-93.269561-233.168483-102.307883 358.086621a31.970084 31.970084 0 0 1-59.330697 5.519807l-119.264671-238.269247L127.880338 415.906867V703.998871A63.777609 63.777609 0 0 0 146.715595 749.33498z m730.43515-730.536299a63.456102 63.456102 0 0 0-45.253022-18.67631H192.087827c-17.112123 0-33.270563 6.574639-45.372232 18.67631S127.880338 46.889006 127.880338 64.001129V351.966698l64.135241 0.180622a32.024271 32.024271 0 0 1 28.538267 17.668439l91.261045 182.395653L417.236696 183.218838a31.977309 31.977309 0 0 1 29.112645-23.144896q0.823636-0.043349 1.64366-0.043349a31.973697 31.973697 0 0 1 29.676186 20.095998l101.560108 253.900269 96.163124-192.322635a31.970084 31.970084 0 0 1 58.926104 4.186816l47.651681 142.951433 27.552072-27.523172a31.970084 31.970084 0 0 1 22.60303-9.352604H895.884854c0.0289 0 0 0 0 0v-287.965569a63.398303 63.398303 0 0 0-18.719659-45.209673z"  horiz-adv-x="1024" />

    
    <glyph glyph-name="wangluopinpaishu" unicode="&#58962;" d="M861.859 477.835c-16.48 0-31.989-4.155-45.54-11.471L689.413 581.508c9.381 17.799 14.699 38.073 14.699 59.591 0 70.692-57.308 128-128 128s-128-57.308-128-128c0-45.071 23.298-84.696 58.504-107.502l-81.771-245.745a129.121 129.121 0 0 1-8.765 0.306c-26.925 0-51.929-8.364-72.567-22.619l-94.502 82.047c4.296 10.897 6.655 22.769 6.655 35.191 0 53.019-42.981 96-96 96s-96-42.981-96-96 42.981-96 96-96c17.23 0 33.397 4.543 47.376 12.49l94.49-82.037c-8.601-17.193-13.452-36.576-13.452-57.073 0-70.579 57.42-128 128-128s128 57.421 128 128c0 44.984-23.329 84.618-58.52 107.452l81.787 245.795c2.897-0.196 5.818-0.305 8.764-0.305 25.961 0 50.112 7.736 70.287 21.019l126.91-115.148c-4.796-11.424-7.449-23.969-7.449-37.135 0-53.019 42.981-96 96-96s96 42.981 96 96-42.981 96-96 96zM416.081 96.157c-35.29 0-64 28.71-64 64s28.71 64 64 64 64-28.71 64-64-28.711-64-64-64z"  horiz-adv-x="1024" />

    
    <glyph glyph-name="aislogo" unicode="&#58963;" d="M966.392 447.259L851.745 646.311a27.039 27.039 0 0 1-23.431 13.544h-42.126l-78.386 135.769a27.04 27.04 0 0 1-23.417 13.52H454.539a27.039 27.039 0 0 1-23.4-13.49l-20.99-36.249-156.729-0.025a27.04 27.04 0 0 1-23.413-13.52L115.084 546.809a27.041 27.041 0 0 1 0-27.04l20.925-36.243-78.386-135.769a27.041 27.041 0 0 1 0-27.04l114.923-199.052a27.04 27.04 0 0 1 23.417-13.52h41.85l78.386-135.769a27.04 27.04 0 0 1 23.417-13.52h229.845a27.04 27.04 0 0 1 23.417 13.52l20.925 36.243h156.773a27.04 27.04 0 0 1 23.417 13.52l114.923 199.052a27.041 27.041 0 0 1 0 27.04l-20.925 36.243 78.386 135.769a27.04 27.04 0 0 1 0.015 27.016zM767.96 338.718l-219.424 0.026 82.291 142.529a4.517 4.517 0 0 1 0 4.507L462.345 777.597h219.439l84.889-147.035 0.003-0.004 84.888-147.032-83.604-144.808z m62.68 90.538h104.516l-78.388-135.767L804.51 384l26.13 45.256z m-208.921 54.27L540.73 343.252 517.204 384l27.429 47.509c0.031 0.054 0.042 0.115 0.07 0.17 0.125 0.24 0.228 0.49 0.31 0.753 0.028 0.091 0.062 0.179 0.084 0.271 0.082 0.341 0.139 0.693 0.139 1.059a4.46 4.46 0 0 1-0.139 1.059c-0.022 0.092-0.056 0.181-0.084 0.272a4.565 4.565 0 0 1-0.31 0.753c-0.029 0.055-0.039 0.116-0.07 0.17L429.711 635.068a4.509 4.509 0 0 1-3.904 2.254h-49.653l78.384 135.768 167.181-289.564zM365.744 637.322h-52.255l-52.259 90.514 156.787 0.024-52.273-90.538z m-62.664 0h-49.655a4.508 4.508 0 0 1-3.904-2.254l-82.29-142.528-23.526 40.748 109.719 190.038 49.656-86.004z m-131.946-156.05l84.891 147.036h54.856l0.009-0.001 0.009 0.001h112.307l109.718-190.039H368.347a4.508 4.508 0 0 1-3.904-2.254L195.961 144.198 86.244 334.237l84.89 147.035z m199.814-52.016h161.975l-23.527-40.749h-54.859c-0.037 0-0.073-0.014-0.11-0.015a4.484 4.484 0 0 1-2.044-0.548c-0.08-0.044-0.154-0.093-0.231-0.142a4.454 4.454 0 0 1-0.652-0.499c-0.068-0.063-0.139-0.122-0.203-0.189a4.439 4.439 0 0 1-0.662-0.86L335.712 187.201a4.515 4.515 0 0 1 0-4.506l24.828-43.003H203.769l167.179 289.564z m-5.205-298.578l26.129-45.257-52.258-90.511-78.384 135.768h104.513z m31.334-54.272l24.826-43.001a4.508 4.508 0 0 1 3.904-2.253h164.579l-23.524-40.749h-219.44l49.655 86.003z m31.331-36.241L344.82 184.948l109.719 190.038 82.288-142.528a4.508 4.508 0 0 1 3.904-2.253h336.963l-109.718-190.04H428.408z m114.923 199.053l-80.987 140.276h47.055l27.427-47.51c0.044-0.076 0.103-0.137 0.152-0.21 0.087-0.134 0.177-0.264 0.279-0.389 0.095-0.115 0.197-0.221 0.301-0.326 0.1-0.1 0.2-0.197 0.311-0.288 0.13-0.107 0.266-0.201 0.406-0.292 0.069-0.046 0.128-0.102 0.2-0.144 0.034-0.02 0.073-0.025 0.107-0.044 0.314-0.17 0.64-0.315 0.984-0.406 0.035-0.01 0.071-0.009 0.107-0.018 0.302-0.072 0.61-0.11 0.92-0.119 0.044-0.001 0.088-0.017 0.132-0.017 0.051 0 0.099 0.018 0.15 0.019 0.062-0.002 0.119-0.018 0.18-0.018l229.505-0.027a4.509 4.509 0 0 1 3.904 2.253l24.841 43.027 53.556-92.759 0.001-0.003 24.83-43.005H543.331z m292.512 199.051l24.828 43.003a4.517 4.517 0 0 1 0 4.507l-82.289 142.529h47.325l109.457-190.039h-99.321z"  horiz-adv-x="1024" />

    
    <glyph glyph-name="logistic" unicode="&#59409;" d="M723.2 896c-83.2 0-151.466667-68.266667-151.466667-151.466667 0-83.2 151.466667-296.533333 151.466667-296.533333S874.666667 659.2 874.666667 744.533333C874.666667 827.733333 806.4 896 723.2 896z m0-192c-36.266667 0-64 27.733333-64 64s27.733333 64 64 64 64-27.733333 64-64-29.866667-64-64-64zM800 576s0-2.133333-2.133333-2.133333c2.133333 0 2.133333 2.133333 2.133333 2.133333zM887.466667 648.533333c-6.4-14.933333-14.933333-29.866667-21.333334-44.8 6.4-8.533333 10.666667-19.2 17.066667-27.733333h-32c-8.533333-14.933333-17.066667-29.866667-25.6-42.666667h78.933333c19.2-46.933333 29.866667-96 34.133334-149.333333h-170.666667c0 19.2-2.133333 36.266667-4.266667 55.466667-2.133333-2.133333-4.266667-4.266667-4.266666-6.4L723.2 384H512v149.333333h108.8c-8.533333 12.8-17.066667 27.733333-25.6 42.666667H512V785.066667c6.4-2.133333 12.8-2.133333 19.2-4.266667 4.266667 23.466667 10.666667 46.933333 21.333333 66.133333-21.333333 2.133333-40.533333 4.266667-61.866666 4.266667C219.733333 851.2 0 631.466667 0 362.666667c0-270.933333 219.733333-490.666667 490.666667-490.666667s490.666667 219.733333 490.666666 490.666667c-2.133333 106.666667-36.266667 204.8-93.866666 285.866666zM386.133333 795.733333c-61.866667-42.666667-113.066667-121.6-142.933333-219.733333H98.133333c59.733333 108.8 164.266667 189.866667 288 219.733333zM76.8 533.333333h155.733333c-10.666667-46.933333-17.066667-96-19.2-149.333333H42.666667c4.266667 53.333333 14.933333 102.4 34.133333 149.333333zM42.666667 341.333333h170.666666c2.133333-53.333333 8.533333-102.4 19.2-149.333333H76.8c-19.2 46.933333-29.866667 96-34.133333 149.333333z m53.333333-192h147.2c29.866667-100.266667 81.066667-179.2 142.933333-221.866666C262.4-42.666667 155.733333 38.4 96 149.333333zM469.333333-61.866667c-76.8 12.8-142.933333 96-181.333333 211.2H469.333333v-211.2zM469.333333 192h-192c-10.666667 46.933333-19.2 96-19.2 149.333333h213.333334v-149.333333z m0 192H256c2.133333 53.333333 8.533333 102.4 19.2 149.333333h192v-149.333333z m0 192h-179.2c38.4 115.2 104.533333 196.266667 179.2 209.066667V576z m42.666667-234.666667h211.2c-2.133333-53.333333-8.533333-102.4-19.2-149.333333h-192v149.333333z m0-192h179.2c-38.4-115.2-104.533333-198.4-179.2-211.2V149.333333z m81.066667-221.866666c61.866667 42.666667 113.066667 121.6 142.933333 221.866666h147.2c-59.733333-110.933333-164.266667-192-290.133333-221.866666zM746.666667 192c10.666667 46.933333 17.066667 96 19.2 149.333333h170.666666c-2.133333-53.333333-12.8-102.4-32-149.333333H746.666667zM753.066667 501.333333s0-2.133333-2.133334-2.133333l2.133334 2.133333z"  horiz-adv-x="1024" />

    
    <glyph glyph-name="chart-relation" unicode="&#59277;" d="M403.520683 240.660288l-91.333603-68.819998a127.918212 127.918212 0 1 0-36.392732 52.638344l93.700091 70.610853a223.856872 223.856872 0 0 0 292.612911 296.130662l31.915593 71.634199a127.918212 127.918212 0 1 0 59.929683-22.641524l-36.776486-82.507247a223.409158 223.409158 0 0 0 81.164106-172.497709c0-55.772341-20.338996-106.747748-54.045445-145.890721l99.200574-122.545648a127.918212 127.918212 0 1 0-50.016021-39.846523l-97.409719 120.24312c-34.985631-22.641524-76.750927-35.817099-121.586261-35.8171a223.345199 223.345199 0 0 0-170.962691 79.309292z"  horiz-adv-x="1024" />

    
    <glyph glyph-name="chart-scatter-plot" unicode="&#59278;" d="M85.504-42.688H1024V-128H0v85.312h0.192V896h85.312v-938.688zM384.192 384a128 128 0 1 0 0 256 128 128 0 0 0 0-256z m298.688-298.688a128 128 0 1 0 0 256 128 128 0 0 0 0-256zM320.192 682.688a64 64 0 1 0 0 128 64 64 0 0 0 0-128z m-42.688-597.376a64 64 0 1 0 0 128 64 64 0 0 0 0-128z m426.688 341.376a64 64 0 1 0 0 128 64 64 0 0 0 0-128zM917.504 512a64 64 0 1 0 0 128 64 64 0 0 0 0-128zM746.88 725.312a64 64 0 1 0 0 128 64 64 0 0 0 0-128z m-298.688-512a64 64 0 1 0 0 128 64 64 0 0 0 0-128z"  horiz-adv-x="1024" />

    
    <glyph glyph-name="chart-area" unicode="&#59279;" d="M85.504-42.688H1024V-128H0v85.312h0.192V896h85.312v-938.688zM128 172.672l212.736 271.552 303.424-155.52L990.912 640v-632.64H128v165.312z"  horiz-adv-x="1024" />

    
    <glyph glyph-name="chart-line" unicode="&#59280;" d="M85.504-42.688H1024V-128H0v85.312h0.192V896h85.312v-938.688z m120.256 169.984l-70.208 48.512L372.48 518.272l303.424-155.52 265.472 345.92 67.712-51.968-308.8-402.304-300.16 153.856-194.368-280.96z"  horiz-adv-x="1024" />

    
    <glyph glyph-name="chart-bar" unicode="&#59281;" d="M85.312-42.688H1024V-128H0V896h85.312v-938.688zM256 554.688h85.312V128H256V554.688zM512 768h85.312v-640H512V768z m256-213.312h85.312V128H768V554.688z"  horiz-adv-x="1024" />

    
    <glyph glyph-name="electrical-equipment" unicode="&#59520;" d="M219.429 749.714v-755.81a73.143 73.143 0 0 1 73.142-73.142h512v755.81a73.143 73.143 0 0 1-73.142 73.142h-512z m170.666 48.762V839.12C390.095 868.937 408.137 896 436.151 896h151.698c28.038 0 46.056-27.063 46.056-56.88v-40.644h97.524a121.905 121.905 0 0 0 121.904-121.905V-128H292.571a121.905 121.905 0 0 0-121.904 121.905V798.476h219.428z m48.762 0h146.286V839.12a20.431 20.431 0 0 1-1.536 8.12H440.393a20.431 20.431 0 0 1-1.536-8.12v-40.643z m-48.762-482.06h208.799L462.019 105.984a24.381 24.381 0 0 1 40.863-26.575l161.401 248.076a24.381 24.381 0 0 1-20.455 37.693H433.664l123.49 201.118a24.381 24.381 0 1 1-41.546 25.503l-146.285-238.25a24.381 24.381 0 0 1 20.772-37.133z"  horiz-adv-x="1024" />

    
    <glyph glyph-name="icon_index_line" unicode="&#60321;" d="M895.981325 831.978894c17.672498 0 31.998785-14.326287 31.998784-31.998785v-703.966102c0-17.672498-14.326287-31.998785-31.998784-31.998785s-31.998785 14.326287-31.998785 31.998785V799.980109c0 17.672498 14.326287 31.998785 31.998785 31.998785zM639.994116 479.995331c17.672498 0 31.998785-14.326287 31.998785-31.998785v-351.983563c0-17.672498-14.326287-31.998785-31.998785-31.998785s-31.998785 14.326287-31.998785 31.998785V447.99757c0 17.671475 14.326287 31.997762 31.998785 31.997761z m-255.988232 95.995331c17.672498 0 31.998785-14.326287 31.998785-31.998784v-447.978895c0-17.672498-14.326287-31.998785-31.998785-31.998785s-31.998785 14.326287-31.998785 31.998785V543.992901c0 17.671475 14.326287 31.997762 31.998785 31.997761zM64.021106 0.018675H959.977871c17.672498 0 31.998785-14.326287 31.998785-31.998784s-14.326287-31.998785-31.998785-31.998785H64.021106c-17.672498 0-31.998785 14.326287-31.998785 31.998785s14.326287 31.998785 31.998785 31.998784z m63.997569 319.984779c17.672498 0 31.998785-14.326287 31.998785-31.998785v-191.990662c0-17.672498-14.326287-31.998785-31.998785-31.998785s-31.998785 14.326287-31.998784 31.998785V288.004669c0 17.672498 14.326287 31.998785 31.998784 31.998785z"  horiz-adv-x="1024" />

    


  </font>
</defs>
</svg>
