<?xml version="1.0" standalone="no"?>
<!DOCTYPE svg PUBLIC "-//W3C//DTD SVG 20010904//EN"
 "http://www.w3.org/TR/2001/REC-SVG-20010904/DTD/svg10.dtd">
<svg version="1.0" xmlns="http://www.w3.org/2000/svg"
 width="800.000000pt" height="600.000000pt" viewBox="0 0 800.000000 600.000000"
 preserveAspectRatio="xMidYMid meet">

<g transform="translate(0.000000,600.000000) scale(0.100000,-0.100000)"
fill="#000000" stroke="none">
<path d="M6745 4632 c-33 -16 -85 -37 -115 -47 -65 -21 -103 -40 -130 -63 -24
-19 -75 -166 -64 -183 4 -7 3 -9 -3 -6 -10 6 -42 -32 -48 -57 -1 -6 -7 -24
-14 -41 -15 -37 -12 -119 6 -167 8 -20 18 -58 23 -85 l8 -48 1 67 c1 42 9 87
21 119 12 28 19 54 16 57 -9 8 32 79 66 112 l32 33 76 -9 c119 -12 151 -10
206 18 78 38 151 34 229 -15 54 -33 67 -37 126 -36 37 1 76 -4 88 -10 12 -7
25 -10 29 -7 4 2 8 -3 9 -12 2 -28 22 -134 32 -177 6 -22 11 -62 12 -90 l1
-50 18 70 c19 73 25 147 13 159 -4 3 -7 19 -8 35 -1 15 -9 44 -18 62 -12 27
-14 47 -8 94 13 93 -19 157 -84 167 -11 2 -22 5 -25 8 -8 8 -84 42 -89 40 -2
-1 -7 3 -10 8 -3 6 -45 26 -93 46 -74 31 -98 36 -165 36 -65 0 -88 -5 -138
-28z"/>
<path d="M2889 4631 c-90 -29 -156 -71 -222 -141 -71 -75 -112 -152 -133 -248
-15 -74 -18 -150 -6 -170 7 -10 42 -2 158 32 250 75 465 162 587 237 27 16 50
29 51 27 2 -2 17 -34 35 -73 51 -112 143 -215 190 -215 15 0 14 80 -3 161 -40
185 -183 339 -365 393 -74 22 -219 20 -292 -3z"/>
<path d="M4773 4635 c-67 -18 -122 -46 -149 -77 -28 -30 -54 -82 -54 -106 0
-11 -13 -25 -35 -35 -59 -28 -95 -134 -95 -281 0 -49 2 -57 16 -52 9 3 19 6
24 6 5 0 12 15 15 33 10 44 71 160 100 187 l24 22 28 -20 c76 -53 186 -94 291
-107 l54 -7 -16 30 c-22 43 -21 44 19 21 19 -12 79 -36 132 -54 82 -28 92 -34
62 -34 -20 -1 -72 -8 -115 -17 -81 -17 -129 -16 -270 7 -105 17 -237 4 -242
-24 -2 -10 3 -26 12 -35 8 -10 20 -40 26 -67 6 -28 15 -60 22 -72 16 -33 68
-53 137 -53 53 0 64 4 96 31 19 17 40 48 46 70 27 89 82 91 117 6 31 -74 60
-99 121 -105 112 -10 157 19 181 119 19 80 37 92 84 55 35 -26 36 -26 36 -6 0
17 4 20 22 15 21 -7 21 -6 15 76 -17 231 -159 409 -376 473 -69 20 -255 20
-328 1z m522 -518 c33 -47 9 -149 -44 -184 -46 -31 -127 -32 -165 -2 -35 28
-66 90 -66 133 0 44 29 66 101 75 89 11 157 2 174 -22z m-445 10 c63 -22 64
-102 2 -176 -23 -28 -36 -34 -78 -38 -60 -6 -115 14 -140 52 -25 39 -25 142 0
161 25 17 165 18 216 1z"/>
<path d="M5104 4085 c-4 -8 -4 -22 0 -30 7 -19 56 -20 56 -1 0 8 -6 13 -12 12
-7 0 -13 4 -13 9 0 6 6 9 12 9 7 -1 10 2 7 7 -9 15 -44 10 -50 -6z"/>
<path d="M4767 4094 c-4 -4 -7 -18 -7 -31 0 -21 4 -24 28 -21 21 2 27 8 27 28
0 18 -6 26 -20 28 -12 2 -24 0 -28 -4z m43 -20 c0 -17 -22 -14 -28 4 -2 7 3
12 12 12 9 0 16 -7 16 -16z"/>
<path d="M921 4087 c-24 -29 17 -70 46 -46 8 7 13 22 11 33 -4 25 -40 33 -57
13z m49 -5 c0 -13 -12 -22 -22 -16 -10 6 -1 24 13 24 5 0 9 -4 9 -8z"/>
<path d="M1267 4093 c-12 -11 -8 -40 7 -52 28 -23 68 17 45 45 -12 15 -41 19
-52 7z m43 -18 c0 -8 -4 -15 -10 -15 -5 0 -10 7 -10 15 0 8 5 15 10 15 6 0 10
-7 10 -15z"/>
<path d="M2841 4087 c-14 -17 -6 -43 16 -51 22 -9 45 13 41 38 -4 25 -40 33
-57 13z m49 -5 c0 -13 -12 -22 -22 -16 -10 6 -1 24 13 24 5 0 9 -4 9 -8z"/>
<path d="M3187 4093 c-12 -11 -8 -40 7 -52 16 -14 42 -5 50 16 11 29 -35 58
-57 36z m43 -18 c0 -8 -4 -15 -10 -15 -5 0 -10 7 -10 15 0 8 5 15 10 15 6 0
10 -7 10 -15z"/>
<path d="M6681 4087 c-24 -29 17 -70 46 -46 8 7 13 22 11 33 -4 25 -40 33 -57
13z m49 -5 c0 -13 -12 -22 -22 -16 -10 6 -1 24 13 24 5 0 9 -4 9 -8z"/>
<path d="M7027 4093 c-12 -11 -8 -40 7 -52 28 -23 68 17 45 45 -12 15 -41 19
-52 7z m43 -18 c0 -8 -4 -15 -10 -15 -5 0 -10 7 -10 15 0 8 5 15 10 15 6 0 10
-7 10 -15z"/>
<path d="M4481 3930 c-1 -66 24 -170 56 -237 37 -78 131 -170 213 -211 65 -32
66 -33 62 -68 l-4 -36 50 26 c28 14 54 26 57 26 3 0 5 -79 5 -175 l0 -175 40
0 40 0 0 175 c0 96 2 175 5 175 3 0 29 -12 57 -26 l50 -26 -4 36 c-4 35 -3 36
62 68 83 42 176 134 213 211 32 67 57 171 56 237 l-1 45 -13 -47 c-55 -201
-216 -356 -365 -351 -70 2 -130 2 -200 0 -149 -5 -310 150 -365 351 l-13 47
-1 -45z m489 -500 c0 -5 -4 -10 -10 -10 -5 0 -10 5 -10 10 0 6 5 10 10 10 6 0
10 -4 10 -10z m0 -150 c0 -5 -4 -10 -10 -10 -5 0 -10 5 -10 10 0 6 5 10 10 10
6 0 10 -4 10 -10z m0 -150 c0 -5 -4 -10 -10 -10 -5 0 -10 5 -10 10 0 6 5 10
10 10 6 0 10 -4 10 -10z"/>
<path d="M4872 3807 c-12 -7 -29 -23 -38 -36 -13 -18 -24 -22 -50 -19 -30 4
-34 1 -34 -19 0 -55 129 -85 183 -42 l26 20 30 -22 c56 -42 172 -15 179 42 3
23 0 25 -32 21 -28 -3 -37 1 -51 21 -23 36 -66 49 -100 31 -23 -12 -30 -12
-48 1 -26 18 -35 18 -65 2z"/>
<path d="M939 3480 c-87 -33 -165 -87 -197 -138 -30 -47 -62 -116 -62 -134 0
-15 138 -76 225 -99 64 -18 108 -22 215 -22 107 0 151 4 215 22 93 25 225 85
225 102 0 25 -63 142 -94 172 -32 33 -138 90 -188 102 -24 6 -28 4 -28 -15 0
-56 -50 -90 -132 -90 -35 0 -64 7 -85 20 -29 18 -36 30 -45 82 -3 15 -7 15
-49 -2z"/>
<path d="M2848 3476 c-82 -34 -152 -81 -181 -124 -37 -52 -70 -131 -63 -148 8
-21 117 -69 218 -96 67 -18 109 -22 218 -22 109 0 151 4 218 22 101 27 210 75
218 96 7 18 -36 117 -70 161 -27 35 -107 85 -184 115 -49 19 -53 19 -48 3 16
-55 18 -93 4 -93 -8 0 -17 -20 -24 -57 -12 -62 -52 -163 -64 -163 -4 0 -11 45
-15 100 -6 84 -5 104 9 125 21 31 21 30 -14 45 -24 10 -36 10 -60 0 -35 -15
-35 -14 -14 -45 14 -21 15 -41 9 -125 -4 -55 -11 -100 -15 -100 -12 0 -52 101
-64 163 -6 34 -16 57 -23 57 -15 0 -16 11 -3 65 5 22 8 40 7 42 -1 1 -28 -9
-59 -21z"/>
<path d="M6730 3490 c-50 -14 -143 -65 -184 -101 -28 -25 -54 -63 -76 -110
-39 -85 -42 -80 78 -129 109 -46 200 -63 332 -63 132 0 223 17 332 63 120 49
117 44 78 129 -37 80 -82 126 -161 167 -90 45 -122 54 -144 38 -25 -19 -183
-19 -210 -1 -12 9 -30 11 -45 7z"/>
<path d="M5080 3256 c0 -59 9 -72 57 -82 47 -9 73 22 73 86 l0 50 -65 0 -65 0
0 -54z"/>
<path d="M2980 2911 c-44 -14 -84 -38 -112 -68 -30 -31 -67 -107 -68 -138 0
-13 -18 -30 -51 -50 -72 -42 -171 -151 -209 -229 -51 -104 -75 -259 -50 -336
l8 -25 1 25 c1 34 25 66 54 74 18 4 26 17 36 55 21 83 23 84 116 64 114 -24
555 -24 669 0 43 9 82 14 86 12 4 -3 16 -32 26 -65 15 -46 24 -62 42 -66 28
-8 52 -40 53 -74 l1 -25 8 25 c13 41 11 134 -5 209 -21 99 -67 185 -141 262
-35 36 -64 69 -64 72 0 4 8 7 18 7 9 0 32 9 51 21 l34 21 -29 19 c-16 10 -44
22 -61 25 -18 3 -33 8 -33 10 0 1 8 18 19 36 10 18 22 46 25 61 7 28 6 29 -26
22 -46 -10 -84 -31 -103 -57 -13 -17 -18 -19 -22 -10 -11 29 -68 84 -106 103
-44 23 -128 33 -167 20z"/>
<path d="M4840 2724 c-260 -55 -456 -280 -477 -544 -6 -77 -5 -80 16 -80 l21
0 0 -370 0 -370 48 -35 c48 -35 72 -43 72 -25 0 26 67 144 97 171 39 34 152
93 161 84 10 -10 -17 -118 -42 -167 -13 -26 -43 -71 -65 -101 -23 -29 -41 -57
-41 -60 0 -10 126 -45 200 -57 83 -13 177 -13 260 0 71 11 200 47 200 56 0 3
-20 34 -45 68 -25 35 -56 88 -70 118 -24 53 -44 148 -31 148 17 0 129 -63 159
-89 30 -27 97 -145 97 -171 0 -18 24 -10 73 25 l47 35 0 438 c0 404 -2 445
-20 516 -27 107 -63 169 -146 253 -82 83 -174 133 -289 158 -85 18 -140 18
-225 -1z m380 -341 c0 -29 45 -117 80 -156 17 -20 54 -51 81 -69 l49 -31 0
-56 c-1 -194 -128 -368 -322 -440 -25 -10 -28 -15 -28 -61 0 -59 -19 -83 -79
-101 -32 -10 -50 -10 -82 0 -61 18 -79 42 -79 101 0 39 -4 52 -17 56 -103 34
-215 123 -270 215 -36 61 -63 152 -63 216 l0 43 55 0 c31 0 89 7 130 15 59 12
80 13 97 4 18 -10 24 -8 39 10 10 12 65 46 121 74 101 51 198 118 247 171 29
30 41 33 41 9z"/>
<path d="M5107 2173 c-12 -11 -8 -40 7 -52 28 -23 68 17 45 45 -12 15 -41 19
-52 7z m43 -18 c0 -8 -4 -15 -10 -15 -5 0 -10 7 -10 15 0 8 5 15 10 15 6 0 10
-7 10 -15z"/>
<path d="M4877 1783 c-27 -14 -28 -15 -12 -33 42 -46 126 -49 180 -6 l29 23
-29 15 c-39 20 -132 20 -168 1z"/>
<path d="M773 2388 c-24 -24 -30 -37 -23 -48 5 -8 10 -27 10 -41 0 -23 5 -27
38 -33 87 -14 101 2 74 91 -22 73 -50 82 -99 31z"/>
<path d="M537 2335 c-14 -13 -14 -21 1 -77 14 -53 21 -64 41 -66 29 -4 97 56
81 72 -5 5 -10 23 -10 38 0 30 -4 33 -62 42 -25 5 -41 2 -51 -9z"/>
<path d="M2673 2223 c-17 -6 -16 -38 1 -66 8 -12 17 -40 21 -62 13 -78 60
-115 147 -115 77 0 117 32 152 123 13 31 20 37 46 37 27 0 33 -6 54 -52 32
-73 64 -100 125 -106 98 -9 155 31 167 119 4 27 13 54 20 60 19 16 18 55 -2
63 -30 11 -209 6 -287 -9 -68 -13 -85 -13 -148 0 -66 14 -269 20 -296 8z m227
-14 c82 -19 100 -61 60 -139 -28 -54 -60 -74 -123 -72 -55 1 -93 22 -114 63
-17 31 -17 124 0 137 27 22 107 27 177 11z m457 -15 c16 -22 17 -101 0 -133
-21 -41 -59 -62 -114 -63 -63 -2 -95 18 -123 72 -52 103 4 154 159 146 48 -3
68 -9 78 -22z"/>
<path d="M2847 2174 c-4 -4 -7 -18 -7 -31 0 -21 4 -24 28 -21 21 2 27 8 27 28
0 18 -6 26 -20 28 -12 2 -24 0 -28 -4z m43 -20 c0 -17 -22 -14 -28 4 -2 7 3
12 12 12 9 0 16 -7 16 -16z"/>
<path d="M3184 2165 c-4 -8 -4 -22 0 -30 7 -19 56 -20 56 -1 0 8 -6 13 -12 12
-7 0 -13 4 -13 9 0 6 6 9 12 9 7 -1 10 2 7 7 -9 15 -44 10 -50 -6z"/>
<path d="M921 2167 c-24 -29 17 -70 46 -46 8 7 13 22 11 33 -4 25 -40 33 -57
13z m49 -5 c0 -13 -12 -22 -22 -16 -10 6 -1 24 13 24 5 0 9 -4 9 -8z"/>
<path d="M1267 2173 c-12 -11 -8 -40 7 -52 28 -23 68 17 45 45 -12 15 -41 19
-52 7z m43 -18 c0 -8 -4 -15 -10 -15 -5 0 -10 7 -10 15 0 8 5 15 10 15 6 0 10
-7 10 -15z"/>
<path d="M6681 2167 c-24 -29 17 -70 46 -46 8 7 13 22 11 33 -4 25 -40 33 -57
13z m49 -5 c0 -13 -12 -22 -22 -16 -10 6 -1 24 13 24 5 0 9 -4 9 -8z"/>
<path d="M7027 2173 c-12 -11 -8 -40 7 -52 28 -23 68 17 45 45 -12 15 -41 19
-52 7z m43 -18 c0 -8 -4 -15 -10 -15 -5 0 -10 7 -10 15 0 8 5 15 10 15 6 0 10
-7 10 -15z"/>
<path d="M6299 2054 c-11 -13 -6 -21 29 -57 40 -39 43 -41 59 -24 16 16 15 19
-22 57 -44 45 -47 46 -66 24z"/>
<path d="M7395 2030 c-37 -38 -38 -41 -22 -57 16 -17 19 -15 59 24 35 36 40
44 29 57 -19 22 -22 21 -66 -24z"/>
<path d="M2523 1989 c11 -27 89 -140 93 -136 1 1 -8 32 -19 68 -18 56 -27 69
-54 81 l-32 15 12 -28z"/>
<path d="M3533 2000 c-18 -8 -33 -21 -33 -28 0 -7 -11 -40 -25 -75 l-25 -62
34 40 c34 39 92 134 84 138 -1 2 -18 -4 -35 -13z"/>
<path d="M6600 1511 c-60 -37 -106 -91 -136 -158 -13 -31 -24 -59 -24 -64 0
-22 251 -121 267 -106 6 7 -49 357 -57 357 -3 0 -25 -13 -50 -29z"/>
<path d="M7071 1363 c-17 -97 -29 -178 -26 -181 17 -17 275 84 275 109 0 25
-61 136 -91 167 -18 19 -54 44 -79 57 l-47 24 -32 -176z"/>
<path d="M828 1501 c-49 -31 -84 -72 -116 -136 -41 -84 -42 -82 40 -119 230
-106 505 -106 736 -1 39 19 72 36 72 40 0 17 -61 135 -84 162 -34 40 -118 91
-124 74 -10 -29 -57 -72 -107 -97 -48 -23 -64 -26 -138 -23 -72 4 -90 8 -133
34 -27 17 -58 45 -69 63 -11 17 -22 31 -26 32 -3 0 -26 -13 -51 -29z"/>
<path d="M2672 1438 c-18 -31 -19 -38 -8 -109 7 -41 16 -80 20 -87 11 -19 162
-61 262 -74 114 -15 240 -2 363 37 94 30 96 32 105 145 6 65 4 78 -12 99 l-19
24 -7 -35 c-10 -54 -61 -125 -113 -158 -57 -36 -128 -41 -186 -11 -36 18 -38
18 -74 0 -113 -58 -246 12 -294 154 l-16 49 -21 -34z"/>
<path d="M3022 1423 c-12 -22 0 -49 17 -39 11 7 10 40 -1 52 -4 3 -11 -3 -16
-13z"/>
</g>
</svg>
